<svg width="126" height="31" viewBox="0 0 126 31" fill="none" xmlns="http://www.w3.org/2000/svg">
<g clip-path="url(#clip0_6003_254)">
<path d="M17.1736 29.4782H14.7525L14.08 26.0861C13.1385 28.1214 11.9952 29.8853 8.56529 29.8853C2.31077 29.8853 0.0914307 24.1187 0.0914307 15.8421C0.0914307 9.39716 1.57099 1.05267 9.17056 1.05267C15.8958 1.05267 16.9046 7.36192 17.1736 10.5505L12.466 11.4324C11.9952 8.3117 11.6589 6.07293 9.17056 6.07293C7.691 6.07293 7.01847 6.81919 6.61495 8.04033C6.00968 9.87205 5.94243 13.9425 5.94243 16.1135C5.94243 22.8298 6.81671 24.865 9.23781 24.865C10.8519 24.865 12.2642 24.1187 12.2642 19.302H8.8343V14.6209H17.2409V29.4782H17.1736Z" fill="black"/>
<path d="M18.0891 1.47126H23.8056V24.3338H30.8671V29.4897H18.1564V1.47126H18.0891Z" fill="black"/>
<path d="M38.3015 18.9302L39.7999 11.2052C40.1316 9.48593 40.2975 7.92823 40.4633 6.75131C40.5892 9.27246 40.795 10.3225 41.0467 11.4532L42.5851 18.9302H38.3015ZM37.884 1.50708L31.5128 29.5109H36.6315L37.7124 23.4648H43.2085L44.3295 29.5109H50.0716L43.7919 1.50708H37.884Z" fill="black"/>
<path d="M50.5345 1.50635H58.3641L60.4859 13.3044C60.9835 15.9063 61.1951 18.8025 61.361 21.3237C61.5668 18.2602 62.196 14.2275 62.5277 12.716L64.9011 1.50635H72.5591V29.5102H67.1087V13.5583C67.1087 11.7525 67.1488 10.5756 67.4004 5.0775C67.1488 6.88327 66.4853 11.839 66.1937 13.3102L62.8251 29.516H59.2449L55.9906 13.0506C55.6189 11.1179 55.2014 7.71981 54.9097 5.07173C54.9498 7.2525 55.0756 10.6967 55.0756 12.8833V29.5102H50.5403V1.50635H50.5345Z" fill="black"/>
<path d="M82.0129 6.08444C83.0938 6.08444 83.7172 6.5056 84.1747 7.89021C84.718 9.56906 84.718 13.5152 84.718 15.2402C84.718 15.6152 84.718 20.5306 84.3863 22.4633C84.1347 23.9344 83.6772 24.9383 82.1387 24.9383C80.7261 24.9383 80.2228 24.0152 79.9311 22.8787C79.4335 20.9056 79.4335 18.1768 79.4335 15.7825C79.4335 12.2575 79.5193 9.23444 80.0169 7.84406C80.4744 6.58637 81.1378 6.08444 82.0129 6.08444ZM82.1387 1.08252C75.6017 1.08252 73.3998 6.62675 73.3998 15.1883C73.3998 19.6825 73.9431 23.796 75.7275 26.7325C76.0592 27.2806 77.6834 29.9229 82.0129 29.9229C88.8816 29.9229 90.7518 23.9575 90.7518 15.6902C90.7575 7.21521 88.8416 1.08252 82.1387 1.08252Z" fill="black"/>
<path d="M97.4461 1.50635V19.3506C97.4461 22.8352 97.7378 24.8083 100.277 24.8083C102.982 24.8083 103.022 22.3333 103.022 19.0563V1.50635H107.849V19.0563C107.849 24.0121 107.558 29.9313 99.8997 29.9313C93.5743 29.9313 91.7384 26.7006 91.7384 19.5179V1.50635H97.4461Z" fill="black"/>
<path d="M114.336 5.91404H115.92C117.75 5.91404 118.997 6.8775 118.997 9.77942C118.997 12.4217 118.122 13.8929 115.92 13.8929H114.336V5.91404ZM108.76 29.5102H114.336V18.5083H116.126L119.249 29.5102H125.243L121.039 17.3775C122.332 16.5813 124.659 15.1102 124.659 9.81981C124.659 8.76981 124.659 5.4525 122.08 3.01789C120.621 1.67366 118.917 1.50635 115.92 1.50635H108.76V29.5102Z" fill="black"/>
</g>
<defs>
<clipPath id="clip0_6003_254">
<rect width="125.267" height="30" fill="white" transform="translate(0 0.508301)"/>
</clipPath>
</defs>
</svg>
