<svg width="115" height="31" viewBox="0 0 115 31" fill="none" xmlns="http://www.w3.org/2000/svg">
<g clip-path="url(#clip0_6003_214)">
<path d="M11.8142 3.37595H14.2099C15.7345 3.15536 17.259 3.37595 18.5658 4.03771C20.5259 4.92007 21.8327 6.68477 22.2683 8.67007C22.7038 9.77301 22.7038 9.77301 23.575 9.33183H24.2284V0.949477H0.924561V2.49359H1.79573C2.6669 2.49359 3.53808 2.93477 3.97366 3.59654C5.06263 4.92007 5.06263 6.68477 5.06263 15.0671C5.06263 24.1112 4.84483 26.3171 3.97366 27.4201C3.53808 28.0818 2.8847 28.3024 2.23132 28.3024C0.924561 28.7436 0.924561 28.7436 0.924561 29.1848C0.924561 29.4054 0.924561 29.6259 0.924561 29.8465H15.7345C15.9523 29.4054 15.9523 28.9642 15.7345 28.523C15.2989 28.523 15.0811 28.3024 14.6455 28.3024C14.2099 28.3024 13.7743 28.0818 13.5565 28.0818C12.4676 27.1995 11.8142 25.8759 12.032 24.5524C11.5964 23.0083 11.5964 20.3612 11.5964 18.1554V16.3907H12.4676C13.5565 16.3907 14.6455 16.3907 15.7345 16.8318C16.8234 17.4936 17.4768 18.5965 17.6946 19.6995V20.3612H19.0014V10.6554H17.6946V11.5377C17.4768 12.8612 16.8234 13.7436 15.7345 14.4054C15.0811 14.6259 14.6455 14.6259 13.9921 14.6259H11.5964V12.1995C11.5964 9.77301 11.8142 4.47889 11.8142 3.59654V3.37595ZM113.741 20.8024C112.652 19.0377 111.128 17.9348 109.168 17.273C107.643 16.8318 106.336 16.1701 105.247 15.0671C104.812 14.6259 104.594 13.7436 104.594 13.0818C104.594 12.4201 104.812 11.7583 105.465 11.3171C106.119 10.6554 107.207 10.4348 108.079 10.6554C110.039 11.3171 111.563 12.8612 111.999 14.8465C112.435 15.7289 112.435 15.7289 113.088 15.5083L113.523 15.2877V9.77301L113.306 9.55242C111.128 8.89065 108.95 8.44948 106.554 8.67007C104.594 8.67007 102.634 9.55242 101.327 10.8759C100.02 12.1995 99.367 13.7436 99.367 15.7289C99.367 17.0524 99.8025 18.3759 100.892 19.2583C101.98 20.3612 103.287 21.023 104.594 21.4642C107.861 22.7877 108.95 23.6701 108.95 25.2142C108.95 26.5377 108.079 27.8612 106.772 28.0818C106.119 28.3024 105.247 28.3024 104.376 28.0818C102.416 27.1995 100.891 25.6554 100.238 23.4495L100.02 22.7877H99.5847C99.3669 22.7877 99.1492 22.7877 99.1492 23.0083H98.9314V29.1848H99.367C100.892 29.6259 102.416 30.0671 103.941 30.2877H106.119C106.99 30.2877 108.079 30.2877 108.95 30.0671C111.346 29.6259 113.306 27.8612 114.177 25.6554C114.395 24.9936 114.612 24.3318 114.612 23.6701C114.395 22.5671 114.177 21.6848 113.741 20.8024ZM93.2688 9.33183C90.6552 8.22889 87.6061 8.22889 84.9926 9.55242C82.5969 10.6554 80.8546 12.8612 79.9834 15.5083C79.5478 16.8318 79.33 18.3759 79.33 19.9201C79.33 20.8024 79.33 21.4642 79.5478 22.3465C80.2012 26.3171 83.4681 29.6259 87.3883 30.2877C88.6951 30.5083 90.0019 30.5083 91.3086 30.2877C92.6154 30.0671 93.9221 29.6259 95.0111 28.9642C95.8823 28.523 96.7534 27.6407 97.4068 26.7583C97.4068 26.5377 97.189 26.3171 96.9712 26.0965C96.7534 26.0965 96.5356 26.3171 96.3178 26.5377C95.2289 27.1995 93.9221 27.6407 92.6154 27.6407C90.873 27.8612 89.1307 26.9789 88.0417 25.8759C87.6061 25.4348 87.1705 24.9936 86.9528 24.3318C86.2994 23.0083 85.8638 21.4642 85.8638 19.9201V18.8171H97.8424V18.3759C97.8424 17.9348 97.8424 17.4936 97.8424 17.0524C97.6246 13.9642 95.8823 10.8759 93.2688 9.33183ZM87.1705 17.0524H85.646V15.7289C86.0816 12.4201 87.3883 10.4348 88.9129 10.4348C90.4374 10.4348 91.0908 12.4201 91.3086 15.9495V17.0524H90.0019H87.1705ZM55.8084 8.67007C55.155 8.67007 54.2838 8.89065 53.6304 9.11124C52.1059 9.77301 51.0169 11.0965 50.3635 12.6407L50.1458 13.0818V8.67007H49.928C49.7102 8.67007 41.6518 10.2142 41.434 10.4348C41.2162 10.6554 41.2162 10.6554 41.2162 10.8759C41.2162 11.0965 41.2162 11.3171 41.434 11.3171L42.0874 11.5377C42.523 11.5377 42.9586 11.7583 43.3942 12.1995C43.8298 12.8612 44.0476 14.1848 44.0476 19.6995C44.0476 22.1259 44.0476 24.5524 43.8298 26.9789C43.612 27.6407 43.1764 28.3024 42.3052 28.3024L41.6518 28.523H41.434V29.1848C41.434 29.4054 41.434 29.6259 41.434 29.8465H53.6304V29.1848C53.6304 28.9642 53.6304 28.7436 53.6304 28.523C52.9771 28.523 52.1059 28.3024 51.4525 28.3024C50.5813 27.8612 50.1458 26.9789 50.3635 26.0965C49.928 24.773 49.7102 21.023 49.928 18.1554C50.1458 15.2877 49.928 15.0671 50.1458 14.8465C50.7991 14.1848 51.6703 13.9642 52.7593 13.9642C53.6304 13.9642 54.5016 14.1848 55.155 14.6259C55.3728 14.8465 55.8084 14.8465 56.0262 15.0671C56.0262 15.0671 58.2041 9.77301 58.2041 9.55242C57.5507 8.89065 56.6795 8.44948 55.8084 8.67007ZM41.2162 17.9348C40.9985 14.8465 39.4739 11.7583 36.6426 9.9936C33.3757 8.22889 29.6732 8.22889 26.4063 9.77301C24.2284 10.8759 22.4861 13.0818 21.6149 15.5083C20.7437 18.3759 20.7437 21.2436 21.6149 23.8907C22.0505 25.4348 22.9216 26.7583 24.0106 27.8612C25.3174 29.1848 27.0597 30.0671 29.0198 30.2877C30.3266 30.2877 31.4156 30.2877 32.7223 30.2877C33.1579 30.2877 33.5935 30.0671 34.0291 30.0671C37.7316 28.9642 40.3451 26.0965 40.9985 22.1259C41.2162 20.8024 41.2162 19.4789 41.2162 17.9348ZM32.0689 28.9642C29.891 29.6259 28.1487 27.4201 27.7131 23.0083C27.4953 20.5818 27.4953 18.3759 27.7131 15.9495C28.1487 12.4201 29.2376 10.4348 30.98 10.4348C31.6334 10.4348 32.2867 10.6554 32.7223 11.3171C34.2469 12.8612 34.9003 15.7289 34.9003 20.1407C35.118 22.5671 34.6825 25.2142 33.8113 27.4201C33.5935 28.0818 32.9401 28.523 32.0689 28.9642ZM71.2717 9.11124C70.6183 9.11124 69.9649 9.11124 69.5293 9.11124C68.4404 9.11124 67.1336 9.33183 66.0446 9.77301L65.3913 9.9936V5.36124C65.609 3.81712 65.609 2.05242 65.3913 0.508301C65.1735 0.508301 56.8973 2.05242 56.6795 2.27301C56.6795 2.49359 56.6795 2.71418 56.6795 2.71418C56.6795 3.15536 56.6795 3.15536 57.7685 3.37595C57.9863 3.37595 58.2041 3.59654 58.6397 3.59654C59.0753 4.03771 59.2931 4.47889 59.5108 5.14065C59.7286 6.90536 59.9464 8.44948 59.7286 10.2142V29.6259L60.382 29.8465C61.2532 30.0671 63.6489 30.5083 64.5201 30.5083C66.0446 30.7289 67.787 30.7289 69.3115 30.5083C73.014 30.0671 76.0631 27.6407 77.3699 24.3318C77.8055 23.2289 78.0232 22.1259 78.241 21.023C78.4588 19.4789 78.241 17.9348 78.0232 16.3907C77.3699 12.6407 74.7563 9.77301 71.2717 9.11124ZM65.6091 28.523C65.6091 28.3024 65.3913 18.5965 65.3913 14.6259V11.7583L66.0446 11.5377C66.4802 11.5377 66.9158 11.5377 67.3514 11.5377C67.787 11.5377 68.2226 11.5377 68.6581 11.7583C70.4005 12.8612 71.2717 14.8465 71.4895 16.8318C71.7073 18.3759 71.7073 20.1407 71.4895 21.6848C71.2717 24.1112 70.4005 26.3171 68.8759 28.0818C68.4404 28.523 68.0048 28.7436 67.3514 28.9642C66.9158 28.9642 66.4802 28.9642 66.0446 28.9642C65.609 28.9642 65.6091 28.7436 65.6091 28.523Z" fill="black"/>
</g>
<defs>
<clipPath id="clip0_6003_214">
<rect width="113.252" height="30" fill="white" transform="translate(0.924561 0.508301)"/>
</clipPath>
</defs>
</svg>
