<svg width="136" height="31" viewBox="0 0 136 31" fill="none" xmlns="http://www.w3.org/2000/svg">
<path d="M14.7431 3.18222L9.80038 28.6475L8.08159 28.6466L3.13968 3.18222H2.45898V2.56519H8.79803V3.18222H7.07924L10.5534 21.174L14.0267 3.18222H11.9854L11.9862 2.56519H15.8892V3.18222H14.7431Z" fill="black"/>
<path d="M15.8234 20.0493L19.6907 20.0502L17.7566 9.92923L15.8234 20.0493ZM12.4207 28.0296H13.5669L18.5088 2.56519H20.2276L25.1703 28.0296H25.7438V28.6466H19.5119L19.5111 28.0296H21.2307L19.7979 20.6664H15.7153L14.2825 28.0296H16.3237L16.3246 28.6466H12.4199V28.0296H12.4207Z" fill="black"/>
<path d="M38.0635 3.18197V28.7188H36.8637L28.3591 4.41521V28.0294H30.0422V28.6464H26.7289V28.0294H27.5891V3.18197H25.9775V2.56494H31.7431L37.2934 18.0359V3.18197H35.6096V2.56494H39.424V3.18197H38.0635Z" fill="black"/>
<path d="M40.7747 28.6464L40.7739 28.0294H41.9201V3.18197H40.7747V2.56494H47.0772V3.18197H45.8962V28.0294H47.0772V28.6464H40.7747Z" fill="black"/>
<path d="M52.1282 28.6464V28.0294H53.3101V3.10957H53.2386C51.5556 3.10957 49.9082 4.85042 49.585 12.7583H48.9766V2.56494H61.6546V12.7583H61.0454C60.688 4.85124 58.897 3.10957 57.3926 3.10957H57.2846L57.2854 28.0294H58.5022V28.6464H52.1282Z" fill="black"/>
<path d="M72.5734 3.18222V2.56519H76.1182V3.18222H75.1516L71.8196 16.5677L71.8205 28.0304L73.0023 28.0296V28.6466L66.6633 28.6475V28.0304L67.8452 28.0296V16.6392L64.12 3.18222H63.2964V2.56519H69.7792V3.18222H67.9889L71.3916 15.406L74.4352 3.18222H72.5734Z" fill="black"/>
<path d="M87.6812 28.6464V28.0294H88.7192V3.18197H87.6812V2.56494H98.9272L98.9264 10.3642H98.318C97.9963 4.85042 96.3482 3.18197 93.5556 3.18197H92.6954V14.8619H93.017C95.2013 14.8619 95.8454 13.9553 96.0615 10.3642H96.6341V20.2301H96.0615C95.8462 16.3124 95.2013 15.479 93.1957 15.4781L92.6954 15.479V28.0285H94.2704V28.6464H87.6812Z" fill="black"/>
<path d="M101.397 20.0493H105.265L103.331 9.92923L101.397 20.0493ZM97.9947 28.0296H99.1408L104.084 2.56519H105.802L110.745 28.0296H111.371V28.6466H105.086V28.0296H106.805L105.372 20.6664H101.29L99.8556 28.0296L101.899 28.0304V28.6475L97.9939 28.6466L97.9947 28.0296Z" fill="black"/>
<path d="M112.171 28.6464V28.0294H113.21V3.18197H112.171V2.56494H118.26V3.18197H117.186V28.0294H118.259V28.6464H112.171Z" fill="black"/>
<path d="M125.227 3.18197L125.227 14.3181H125.764C127.698 14.3181 129.095 14.4637 129.094 9.67477L129.095 8.40534C129.095 3.76116 127.698 3.18115 125.979 3.18115L125.227 3.18197ZM128.88 25.3095L128.879 18.9245C128.88 15.5143 127.913 14.9343 125.907 14.9343H125.227V28.0294H126.802V28.6464H120.212V28.0294H121.25V3.18197H120.214V2.56494H125.98C130.206 2.56494 132.927 4.52381 132.928 8.98617C132.927 12.9039 130.6 14.2819 127.735 14.6447V14.6809C130.743 15.1524 132.821 16.4226 132.821 21.0298V27.0141C132.821 27.8122 133.072 28.0294 133.501 28.0294C133.787 28.0294 134.073 27.9208 134.253 27.8475V28.4646C134.038 28.6102 133.357 28.8628 132.427 28.8628C130.205 28.8636 128.88 28.0656 128.88 25.3095Z" fill="black"/>
</svg>
