<svg width="71" height="31" viewBox="0 0 71 31" fill="none" xmlns="http://www.w3.org/2000/svg">
<path d="M62.9897 6.75737C60.4224 6.75737 57.3951 8.56793 56.8138 14.2259V1.45142H50.299V4.59475C51.3888 4.59475 52.067 5.17313 52.067 6.30473V14.2008C51.3647 8.26616 48.6038 6.73222 47.2475 6.73222C45.8427 6.73222 44.4623 7.61236 44.0506 9.24689V7.08428H38.4561V10.4288C37.56 7.71294 34.8475 6.70708 33.2491 6.73222C32.3529 6.73222 28.5506 7.13456 27.4365 12.4908C26.3951 5.47488 20.2194 6.00296 17.6279 8.34161C17.4827 6.5562 17.1436 4.16725 15.4482 2.7842C14.528 2.02979 13.1475 1.42627 11.2342 1.42627H1.01392V5.19827C2.78188 5.22341 2.85454 6.98369 2.85454 7.23516V18.6014C2.85454 19.8839 2.39438 20.7138 1.01392 20.7389V24.4858H10.4834V20.6635C9.10297 20.6635 8.64281 19.8839 8.64281 18.6014V15.4078H10.2412C12.1545 15.3323 13.7772 15.5839 15.5209 13.6225C15.4725 14.1505 15.3271 15.257 15.3271 15.8101C15.2546 18.6014 15.5693 21.1916 17.192 22.9016C17.2405 22.9519 18.8389 24.863 21.5271 24.9133C23.0287 24.9385 26.4436 24.6366 27.3397 19.3056C27.5576 20.0348 28.6475 24.9133 33.5154 24.9133C38.4076 24.9133 39.4491 20.2863 39.6913 18.853V24.5613C39.6913 26.07 38.6014 26.749 37.9475 26.7741V29.9174H45.9154V26.7741C45.0193 26.6483 44.1959 25.7935 44.1959 24.4355L44.1232 22.2477C44.8256 24.2594 46.7147 24.9133 47.4654 24.9133C48.3857 24.9133 50.4686 24.3852 51.0741 20.588V24.4606H57.9037V20.6383C58.7755 26.5227 68.681 26.4724 69.2622 19.0289H64.5638C64.3943 20.0851 63.9342 20.9401 63.0865 20.9401C62.0209 20.9401 61.585 19.6828 61.5123 18.2745C61.488 17.7716 61.4639 17.2436 61.488 16.9167H69.4076C69.4803 15.2318 69.5771 12.6417 68.3662 10.1773C67.4217 8.26616 65.581 6.75737 62.9897 6.75737ZM9.99906 11.1077H8.66703V5.77665H9.99906C11.0405 5.77665 11.6217 6.68193 11.6217 8.41705C11.6217 10.3282 11.1858 11.0826 9.99906 11.1077ZM20.074 13.3458C20.1467 11.9376 20.6069 10.6048 21.6725 10.6048C22.7381 10.6048 23.1498 11.9376 23.1983 13.3458C23.2225 13.8236 23.2225 13.8487 23.1983 14.2008H20.074C20.0498 13.8487 20.0498 13.8236 20.074 13.3458ZM23.1983 19.0541C23.0287 20.1103 22.5686 20.9653 21.7209 20.9653C20.6553 20.9653 20.2194 19.708 20.1467 18.2997C20.1225 17.7967 20.0983 17.2687 20.1225 16.9417H27.0732C27.0975 17.7716 27.1217 17.998 27.3397 19.0792L23.1983 19.0541ZM33.5397 20.9903C32.3045 20.9653 31.8201 18.702 31.8201 15.8605C31.8201 13.0189 32.353 10.7054 33.5397 10.7305C34.7748 10.7557 35.2592 13.0189 35.2592 15.8605C35.2592 18.702 34.799 21.0155 33.5397 20.9903ZM45.6491 20.9401C44.6803 20.9401 44.3412 19.8588 44.3412 18.4255V13.1698C44.2928 11.3844 44.8014 10.5294 45.7702 10.5797C46.7873 10.63 47.3685 11.9627 47.3685 15.8856C47.3685 19.4313 46.7147 20.9401 45.6491 20.9401ZM64.6122 14.2008H61.488C61.4639 13.8487 61.4639 13.8236 61.488 13.3458C61.5607 11.9376 61.9967 10.7054 63.0622 10.7054C64.1278 10.7054 64.5638 11.9376 64.6365 13.3458C64.6365 13.8236 64.6607 13.8487 64.6122 14.2008Z" fill="black"/>
</svg>
