<svg width="22" height="23" viewBox="0 0 22 23" fill="none" xmlns="http://www.w3.org/2000/svg">
<path fill-rule="evenodd" clip-rule="evenodd" d="M11.001 0.821289C8.01358 0.821289 7.63866 0.834352 6.46532 0.887747C5.29426 0.941372 4.49492 1.12677 3.7955 1.39879C3.07201 1.67975 2.4583 2.05558 1.84687 2.66723C1.23499 3.27864 0.859155 3.89235 0.577277 4.6156C0.304566 5.31525 0.118939 6.11481 0.0662299 7.28539C0.0137501 8.45873 0 8.83387 0 11.8213C0 14.8087 0.0132918 15.1825 0.066459 16.3558C0.120314 17.5269 0.305712 18.3262 0.577506 19.0256C0.858696 19.7491 1.23453 20.3628 1.84619 20.9742C2.45738 21.5861 3.07109 21.9628 3.79412 22.2438C4.49401 22.5158 5.29358 22.7012 6.4644 22.7548C7.63775 22.8082 8.01244 22.8213 10.9997 22.8213C13.9873 22.8213 14.3611 22.8082 15.5345 22.7548C16.7055 22.7012 17.5058 22.5158 18.2056 22.2438C18.9289 21.9628 19.5417 21.5861 20.1529 20.9742C20.7648 20.3628 21.1406 19.7491 21.4225 19.0258C21.6929 18.3262 21.8785 17.5266 21.9335 16.356C21.9862 15.1827 22 14.8087 22 11.8213C22 8.83387 21.9862 8.45896 21.9335 7.28562C21.8785 6.11458 21.6929 5.31525 21.4225 4.61583C21.1406 3.89235 20.7648 3.27864 20.1529 2.66723C19.541 2.05535 18.9291 1.67952 18.205 1.39879C17.5037 1.12677 16.7039 0.941372 15.5328 0.887747C14.3595 0.834352 13.986 0.821289 10.9976 0.821289H11.001ZM10.0125 2.80302C10.3054 2.80256 10.6322 2.80302 10.9993 2.80302C13.9363 2.80302 14.2844 2.81356 15.4443 2.86627C16.5168 2.91531 17.0989 3.09452 17.4866 3.24508C17.9999 3.44446 18.3659 3.68279 18.7507 4.06779C19.1357 4.45279 19.374 4.81946 19.5739 5.33279C19.7244 5.72008 19.9039 6.30217 19.9527 7.37467C20.0054 8.53425 20.0169 8.88258 20.0169 11.8182C20.0169 14.7538 20.0054 15.1022 19.9527 16.2618C19.9037 17.3343 19.7244 17.9163 19.5739 18.3036C19.3745 18.817 19.1357 19.1825 18.7507 19.5673C18.3657 19.9523 18.0002 20.1906 17.4866 20.39C17.0993 20.5412 16.5168 20.72 15.4443 20.769C14.2847 20.8217 13.9363 20.8332 10.9993 20.8332C8.06203 20.8332 7.71392 20.8217 6.55433 20.769C5.48181 20.7195 4.89972 20.5403 4.51174 20.3897C3.9984 20.1904 3.63173 19.952 3.24673 19.567C2.86172 19.182 2.62339 18.8163 2.42355 18.3027C2.27299 17.9154 2.09355 17.3333 2.04474 16.2608C1.99203 15.1013 1.98149 14.7529 1.98149 11.8155C1.98149 8.878 1.99203 8.5315 2.04474 7.37192C2.09378 6.29942 2.27299 5.71733 2.42355 5.32958C2.62293 4.81625 2.86172 4.44958 3.24673 4.06458C3.63173 3.67958 3.9984 3.44125 4.51174 3.24141C4.8995 3.09016 5.48181 2.91141 6.55433 2.86214C7.56909 2.81631 7.96234 2.80256 10.0125 2.80027V2.80302ZM16.8723 4.63003C16.1435 4.63003 15.5523 5.22059 15.5523 5.94957C15.5523 6.67832 16.1435 7.26957 16.8723 7.26957C17.601 7.26957 18.1923 6.67832 18.1923 5.94957C18.1923 5.22082 17.601 4.62957 16.8723 4.62957V4.63003ZM11.0017 6.17153C7.88199 6.17153 5.35265 8.70084 5.35265 11.8205C5.35265 14.9401 7.88199 17.4683 11.0017 17.4683C14.1213 17.4683 16.6498 14.9401 16.6498 11.8205C16.6498 8.70084 14.1211 6.17153 11.0014 6.17153H11.0017ZM10.9984 8.15543C13.0234 8.15543 14.6651 9.79695 14.6651 11.8221C14.6651 13.847 13.0234 15.4888 10.9984 15.4888C8.97326 15.4888 7.33172 13.847 7.33172 11.8221C7.33172 9.79695 8.97326 8.15543 10.9984 8.15543Z" fill="#88A5B5"/>
</svg>
