<svg width="21" height="24" viewBox="0 0 21 24" fill="none" xmlns="http://www.w3.org/2000/svg">
<g clip-path="url(#clip0_6026_1186)">
<path d="M10.5262 0.321289H14.4374C14.4374 0.321289 14.2143 5.2024 19.8581 5.56018V9.32962C19.8581 9.32962 16.8393 9.50851 14.4374 7.71962L14.4768 15.5141C14.4768 16.9096 14.0516 18.2738 13.2549 19.434C12.4582 20.5942 11.3259 21.4982 10.0013 22.0317C8.67671 22.5652 7.21931 22.7041 5.81356 22.4309C4.40781 22.1577 3.1169 21.4847 2.10419 20.497C1.09148 19.5093 0.4025 18.2513 0.124434 16.8823C-0.153632 15.5132 -0.00828316 14.0946 0.542087 12.806C1.09246 11.5174 2.02311 10.4167 3.21627 9.64322C4.40943 8.86973 5.81146 8.45821 7.24495 8.46073H8.25557V12.3324C7.59616 12.1335 6.8891 12.1421 6.23501 12.357C5.58092 12.5719 5.01313 12.9822 4.61243 13.5295C4.21172 14.0768 3.99853 14.7332 4.00318 15.4052C4.00784 16.0773 4.2301 16.7308 4.63834 17.2728C5.04659 17.8148 5.62001 18.2176 6.27702 18.4239C6.93402 18.6302 7.64114 18.6296 8.29773 18.422C8.95433 18.2144 9.52695 17.8105 9.93412 17.2678C10.3413 16.7251 10.5623 16.0711 10.5656 15.3991L10.5262 0.321289Z" fill="#88A5B5"/>
</g>
<defs>
<clipPath id="clip0_6026_1186">
<rect width="21" height="23" fill="white" transform="translate(0 0.321289)"/>
</clipPath>
</defs>
</svg>
