<svg width="27" height="20" viewBox="0 0 27 20" fill="none" xmlns="http://www.w3.org/2000/svg">
<path d="M13.5 0.269043C13.5 0.269043 21.9434 0.268988 24.0488 0.839355C25.2105 1.15326 26.1251 2.0782 26.4355 3.25244C26.9998 5.3808 27 9.82178 27 9.82178C27 9.86931 26.9967 14.2731 26.4355 16.3901C26.1251 17.5644 25.2104 18.4891 24.0488 18.8032C21.9434 19.3734 13.5 19.3735 13.5 19.3735C13.5 19.3735 5.05671 19.3734 2.95117 18.8032C1.78949 18.4892 0.874937 17.5644 0.564453 16.3901C0.00347565 14.2731 1.63794e-05 9.86931 0 9.82178C0 9.82178 0.000378211 5.38078 0.564453 3.25244C0.874945 2.07815 1.78945 1.15322 2.95117 0.839355C5.05671 0.268988 13.5 0.269043 13.5 0.269043ZM10.9707 14.3901L17.7207 10.2378L10.9707 6.0835V14.3901Z" fill="#88A5B5"/>
</svg>
