<svg width="88" height="72" viewBox="0 0 88 72" fill="none" xmlns="http://www.w3.org/2000/svg">
<g clip-path="url(#clip0_10083_338)">
<path fill-rule="evenodd" clip-rule="evenodd" d="M57.4948 60.6808C57.1538 60.6808 56.8615 60.4919 56.7153 60.1614C56.5448 59.76 56.7641 59.2878 57.1782 59.1226C70.7705 53.9756 79.8076 41.5331 80.173 27.3906C80.173 27.3434 80.173 27.3198 80.173 27.2962C80.173 27.2726 80.1243 27.249 80.0756 27.249H8.02175C8.02175 27.249 7.94867 27.249 7.92431 27.2962C7.89995 27.3198 7.87559 27.3434 7.87559 27.3906C8.26534 41.5095 17.2782 53.9756 30.8705 59.1226C31.2846 59.2878 31.5038 59.7364 31.3333 60.1614C31.1628 60.5628 30.7 60.7753 30.2615 60.61C23.4166 58.0129 17.5217 53.5742 13.2102 47.7425C8.82559 41.7928 6.3897 34.757 6.19482 27.4379C6.19482 26.9657 6.36534 26.5171 6.70636 26.1865C7.04739 25.856 7.51021 25.6671 7.99739 25.6671H80.0269C80.5141 25.6671 80.9769 25.856 81.3179 26.1865C81.6589 26.5171 81.8294 26.9657 81.8294 27.4379C81.6346 34.757 79.1987 41.7928 74.8141 47.7425C70.5269 53.5742 64.632 58.0129 57.7628 60.61C57.6653 60.6572 57.5679 60.6572 57.4705 60.6572H57.4948V60.6808Z" fill="#010101"/>
<path d="M57.4705 60.8697C57.0564 60.8697 56.691 60.6336 56.5205 60.2322C56.4231 59.9961 56.4231 59.7364 56.5205 59.4767C56.6179 59.2406 56.8128 59.0517 57.0808 58.9573C70.6 53.8339 79.5885 41.4622 79.9538 27.4142H8.04615C8.4359 41.4386 17.4244 53.8339 30.9192 58.9573C31.4308 59.1698 31.6987 59.7364 31.4795 60.2322C31.2603 60.728 30.7 60.9641 30.1641 60.7753C23.2705 58.1545 17.3513 53.6922 13.0397 47.8369C8.63077 41.8636 6.19487 34.8042 6 27.4379C6 26.8948 6.19487 26.399 6.56026 26.0685C6.95 25.6907 7.43718 25.5018 7.97308 25.5018H80.0026C80.5385 25.5018 81.05 25.7143 81.4154 26.0685C81.7808 26.4226 81.9756 26.8948 81.9756 27.4379C81.7808 34.8042 79.3449 41.8636 74.9359 47.8369C70.6487 53.6686 64.7295 58.1545 57.8115 60.7516L57.8846 60.8225H57.4705V60.8697ZM7.99744 25.856C7.55897 25.856 7.14487 26.0213 6.82821 26.3282C6.5359 26.6115 6.36538 27.0129 6.36538 27.4615C6.56026 34.7334 8.97179 41.7219 13.3564 47.6717C17.6436 53.4561 23.5141 57.8948 30.3346 60.4683C30.6756 60.5864 31.041 60.4447 31.1628 60.1142C31.2846 59.7836 31.1385 59.4295 30.7974 59.3114C17.1564 54.1172 8.07051 41.6039 7.68077 27.3906C7.68077 27.2726 7.72949 27.2254 7.77821 27.1781C7.82692 27.0837 7.94872 27.0601 8.02179 27.0601H80.0513C80.0513 27.0601 80.2461 27.1309 80.2705 27.1545C80.3679 27.249 80.368 27.3198 80.368 27.3906C80.0026 41.6039 70.9167 54.1172 57.2513 59.2878C57.1051 59.3586 56.959 59.4767 56.9103 59.6184C56.8372 59.7836 56.8372 59.9489 56.9103 60.0906C57.0077 60.2794 57.1538 60.4211 57.3487 60.4683H57.4949C57.4949 60.4683 57.641 60.4683 57.7141 60.4447C64.5833 57.8476 70.4538 53.4325 74.6923 47.6244C79.0769 41.6983 81.4885 34.7098 81.6833 27.4142C81.6833 26.9657 81.5128 26.5879 81.2205 26.3046C80.9038 25.9976 80.4897 25.8324 80.0513 25.8324H7.99744V25.856Z" fill="#231F20"/>
<path fill-rule="evenodd" clip-rule="evenodd" d="M80.173 35.0403H7.92427C7.46145 35.0403 7.09607 34.6861 7.09607 34.2376C7.09607 33.789 7.46145 33.4348 7.92427 33.4348H80.173C80.6358 33.4348 81.0012 33.789 81.0012 34.2376C81.0012 34.6861 80.6358 35.0403 80.173 35.0403Z" fill="#010101"/>
<path d="M80.173 35.2292H7.92432C7.36407 35.2292 6.90125 34.8042 6.90125 34.2375C6.90125 33.6709 7.33971 33.2459 7.92432 33.2459H80.173C80.7333 33.2459 81.1961 33.6709 81.1961 34.2375C81.1961 34.8042 80.7577 35.2292 80.173 35.2292ZM7.92432 33.6237C7.55894 33.6237 7.29099 33.907 7.29099 34.2375C7.29099 34.5681 7.5833 34.875 7.92432 34.875H80.173C80.5384 34.875 80.8064 34.5917 80.8064 34.2375C80.8064 33.8834 80.5141 33.6237 80.173 33.6237H7.92432Z" fill="#231F20"/>
<path fill-rule="evenodd" clip-rule="evenodd" d="M31.4308 65.214H56.691V60.6573H31.4308V65.214ZM57.4949 66.8195H30.5782C30.1154 66.8195 29.75 66.4653 29.75 66.0167V59.8781C29.75 59.4295 30.1154 59.0754 30.5782 59.0754H57.4949C57.9577 59.0754 58.3231 59.4295 58.3231 59.8781V66.0167C58.3231 66.4653 57.9577 66.8195 57.4949 66.8195Z" fill="#010101"/>
<path d="M57.4705 67.0083H30.5538C29.9936 67.0083 29.5308 66.5834 29.5308 66.0167V59.8781C29.5308 59.3351 29.9692 58.8865 30.5538 58.8865H57.4705C58.0308 58.8865 58.4936 59.3115 58.4936 59.8781V66.0167C58.4936 66.5597 58.0551 67.0083 57.4705 67.0083ZM30.5782 59.2642C30.2128 59.2642 29.9205 59.5476 29.9205 59.8781V66.0167C29.9205 66.3709 30.2128 66.6306 30.5782 66.6306H57.4949C57.8602 66.6306 58.1526 66.3473 58.1526 66.0167V59.8781C58.1526 59.5239 57.8602 59.2642 57.4949 59.2642H30.5782ZM56.8615 65.4028H31.2359V60.492H56.8615V65.4028ZM31.6013 65.0487H56.4961V60.8461H31.6013V65.0487Z" fill="#231F20"/>
<path d="M39.0795 21.6298C38.8603 21.6298 38.641 21.5589 38.4705 21.4173C36.059 19.5521 34.8897 17.6633 34.9628 15.7745C35.0115 14.4759 35.6449 13.5315 36.2051 12.7288C36.7167 11.9732 37.1795 11.2649 37.2769 10.2733C37.4231 9.09282 37.009 7.81788 36.0346 6.49572C35.7179 6.07074 35.8154 5.48049 36.2538 5.17356C36.6923 4.86662 37.3013 4.96106 37.6179 5.38605C38.8846 7.08597 39.3962 8.8095 39.2013 10.4622C39.0551 11.9024 38.3974 12.8704 37.8128 13.744C37.3256 14.4759 36.9359 15.0662 36.8872 15.8453C36.8385 17.0966 37.7641 18.466 39.6641 19.9298C40.0782 20.2604 40.1513 20.8506 39.8103 21.252C39.6154 21.4881 39.3231 21.6061 39.0551 21.6061L39.0795 21.6298Z" fill="black"/>
<path d="M51.3076 21.6298C51.0884 21.6298 50.8692 21.5589 50.6987 21.4173C48.2871 19.5521 47.1179 17.6633 47.191 15.7745C47.2397 14.4759 47.873 13.5315 48.4333 12.7288C48.9448 11.9732 49.4076 11.2649 49.5294 10.2733C49.6756 9.09282 49.2615 7.81788 48.2871 6.49572C47.9705 6.07074 48.0679 5.48049 48.5064 5.17356C48.9448 4.86662 49.5538 4.96106 49.8705 5.38605C51.1371 7.10958 51.673 8.8095 51.4538 10.4622C51.2833 11.9024 50.6499 12.8704 50.0653 13.744C49.5781 14.4759 49.1884 15.0662 49.1397 15.8453C49.091 17.0966 50.0166 18.466 51.9166 19.9298C52.3307 20.2604 52.4038 20.8506 52.0628 21.252C51.8679 21.4881 51.5756 21.6061 51.3076 21.6061V21.6298Z" fill="black"/>
<path d="M63.4872 21.6298C63.268 21.6298 63.0487 21.5589 62.8782 21.4173C60.4667 19.5521 59.2975 17.6633 59.3705 15.7745C59.4193 14.4759 60.0526 13.5315 60.6128 12.7288C61.1244 11.9732 61.5872 11.2649 61.709 10.2733C61.8552 9.09282 61.441 7.81788 60.4667 6.49572C60.15 6.07074 60.2475 5.48049 60.6859 5.17356C61.1244 4.86662 61.7334 4.96106 62.05 5.38605C63.3167 7.10958 63.8526 8.8095 63.6334 10.4622C63.4628 11.9024 62.8295 12.8704 62.2449 13.744C61.7577 14.4759 61.368 15.0662 61.3192 15.8453C61.2705 17.0966 62.1962 18.466 64.0962 19.9298C64.5103 20.2604 64.5834 20.8506 64.2423 21.252C64.0475 21.4881 63.7552 21.6061 63.4872 21.6061V21.6298Z" fill="black"/>
<path d="M26.8756 21.6298C26.6564 21.6298 26.4372 21.5589 26.2667 21.4173C23.8551 19.5521 22.6859 17.6633 22.759 15.7745C22.8077 14.4759 23.441 13.5315 24.0013 12.7288C24.5128 11.9732 24.9756 11.2649 25.0974 10.2733C25.2436 9.09282 24.8295 7.81788 23.8551 6.49572C23.5384 6.07074 23.6359 5.48049 24.0743 5.17356C24.5128 4.86662 25.1218 4.96106 25.4384 5.38605C26.7051 7.08597 27.2167 8.8095 27.0218 10.4622C26.8513 11.9024 26.2179 12.8704 25.6333 13.744C25.1461 14.4759 24.7564 15.0662 24.7077 15.8453C24.659 17.0966 25.5846 18.466 27.4846 19.9298C27.8987 20.2604 27.9718 20.8506 27.6308 21.252C27.4359 21.4881 27.1436 21.6061 26.8756 21.6061V21.6298Z" fill="black"/>
</g>
<defs>
<clipPath id="clip0_10083_338">
<rect width="76" height="62" fill="white" transform="translate(6 5.0083)"/>
</clipPath>
</defs>
</svg>
