<svg width="54" height="72" viewBox="0 0 54 72" fill="none" xmlns="http://www.w3.org/2000/svg">
<path d="M22.8919 50.3761C12.9813 49.3597 7.41529 40.5983 5.91369 31.3288C5.69345 29.9261 5.07279 27.995 7.01487 27.873C8.75673 27.751 12.3606 28.4422 14.1025 28.9504C19.8486 30.6579 24.9541 34.9268 26.9162 40.7609C27.2565 41.7773 27.3366 42.7531 27.6169 43.6475C27.697 43.8915 27.677 44.1557 28.0173 44.1964C27.9172 41.9603 29.2987 39.4193 29.2987 37.3052C29.2987 36.0652 27.8972 33.3209 27.5769 31.8166C25.3745 21.3884 30.8003 11.5903 40.0102 7.03683C43.2136 5.45125 43.4939 5.4106 44.4349 8.98832C47.7785 21.4494 43.1936 32.9957 31.0005 37.4678L28.4979 49.6646L27.8171 55.2345C28.4378 55.3361 28.1375 55.0718 28.2576 54.7466C28.8182 53.0594 29.1185 51.3925 29.7993 49.7256C32.1217 44.0541 37.4274 39.9072 43.594 39.7445C44.4349 39.7242 47.1979 39.8462 47.8786 40.0495C49.4203 40.517 48.219 43.9118 47.8185 45.1111C45.2758 52.6122 38.889 55.9663 31.421 56.4948C30.9405 56.5355 30.5601 56.2712 30.1997 56.2915C29.5189 56.3525 27.657 59.1984 27.4768 59.8896C27.1564 61.1499 27.697 65.1749 27.1164 65.7847C26.9963 65.9067 26.776 65.9676 26.5958 66.0083L25.9952 65.8457C25.7349 65.6221 25.7349 65.3985 25.6949 65.0935C25.2544 61.7598 26.0152 56.2712 26.3355 52.7748C26.3756 52.2056 26.776 50.8233 26.736 50.4371C26.6959 49.9289 26.2555 50.3354 26.2154 50.3354C25.1543 50.3354 23.8929 50.4371 22.8718 50.3354L22.8919 50.3761ZM42.1925 8.39881C41.8121 8.11422 39.6698 9.41521 39.2294 9.6998C30.8003 14.7818 26.4957 24.6815 30.1997 34.2763C30.6602 34.378 30.46 34.073 30.5601 33.8088C31.2808 31.8573 35.145 20.372 36.4864 19.8841C37.027 19.6808 37.7678 19.7215 37.7478 20.4126L31.7614 35.1301C42.4528 30.9019 45.8364 18.8271 42.1925 8.41914V8.39881ZM26.1153 47.0016C26.2755 42.2246 24.0131 37.6711 20.4693 34.5812C16.9255 31.4914 12.741 30.3124 8.3563 29.9058C8.13607 29.8855 8.03596 29.7025 7.81572 30.0278C8.67665 39.8259 14.1225 47.9367 24.4335 48.3839C24.6137 48.3839 25.0742 48.4856 25.0542 48.1603C25.0542 47.6725 19.6884 42.001 18.9076 41.2691C18.1868 40.5983 15.1235 38.4029 15.0234 37.7524C14.9033 36.9596 15.4038 36.5124 16.1647 36.5937C17.2258 36.6954 21.8507 41.3708 22.7717 42.4278C24.0131 43.8711 24.9541 45.5177 26.1153 47.0016ZM46.5772 41.9196C39.1493 40.2731 32.402 45.7616 30.7202 52.9374C31.9616 51.3925 38.1282 45.3347 39.7899 45.4974C40.3906 45.5584 40.9512 46.3715 40.6309 46.9813C40.4907 47.2862 36.0259 50.1931 35.2451 50.803C34.1639 51.6771 32.6423 53.0187 31.6813 54.0148C31.5011 54.1977 31.2208 54.1977 31.3209 54.6043C33.8035 54.34 36.1661 54.0961 38.4685 53.0594C42.613 51.1892 46.1968 46.5341 46.5572 41.8993L46.5772 41.9196Z" fill="black" stroke="#231F20" stroke-width="0.1" stroke-miterlimit="10"/>
</svg>
