<svg width="62" height="72" viewBox="0 0 62 72" fill="none" xmlns="http://www.w3.org/2000/svg">
<g clip-path="url(#clip0_10083_378)">
<path d="M61.2629 19.0797C61.3064 18.8226 61.2629 18.544 61.1322 18.3083L55.0975 8.57972C54.7707 8.08687 54.1172 7.93686 53.6161 8.25829C53.1368 8.55829 52.9843 9.17972 53.2675 9.67258L58.2347 17.6869L50.5661 17.2369L48.7361 13.5512C48.4747 13.0369 47.8429 12.8012 47.2982 13.0583C46.7754 13.3154 46.5357 13.9369 46.7971 14.4726L48.1043 17.0869L35.0329 16.294C34.5972 16.2726 34.1832 16.5083 34.0089 16.894L30.1093 24.8654C29.9568 25.1869 29.9786 25.5726 30.1747 25.8726L33.5297 31.1869L20.6979 30.4154C20.2622 30.394 19.8482 30.6297 19.6739 31.0154L15.7743 38.9869C15.6872 39.1583 15.6654 39.3726 15.6872 39.5654C15.6872 39.7154 15.7525 39.8654 15.8397 39.994L19.1947 45.3083L6.34108 44.5369C5.90537 44.5154 5.49144 44.7511 5.31715 45.1369L1.41751 53.1083C1.33037 53.3012 1.30858 53.494 1.33037 53.6869C1.33037 53.8369 1.39572 53.9869 1.48287 54.1154L7.3868 63.4154C7.6918 63.9083 8.36715 64.0583 8.86822 63.7583C9.36929 63.4583 9.5218 62.794 9.2168 62.3012L4.40215 54.7154L12.1579 55.0583L14.4454 58.7654C14.7504 59.2583 15.4039 59.4297 15.9268 59.1297C16.4497 58.8297 16.6022 58.1869 16.2972 57.6726L14.7504 55.1869L27.1464 55.744C27.5604 55.744 27.9307 55.5512 28.1268 55.2083L32.4404 47.7083C32.5493 47.5154 32.6147 47.3226 32.6147 47.0869C32.6147 46.894 32.5711 46.7012 32.4839 46.5297L29.0854 41.044L41.5032 41.6012C41.9172 41.6012 42.2875 41.4083 42.4836 41.0654L46.8407 33.4797C47.015 33.1369 47.015 32.7297 46.8407 32.4083L43.4204 26.9226C43.4204 26.9226 55.8818 27.4583 55.9036 27.4797C56.2957 27.4797 56.6443 27.2654 56.8404 26.944L61.1975 19.3583C61.1975 19.3583 61.2847 19.1654 61.3064 19.0583L61.2629 19.0797ZM26.5364 53.6012L4.0318 52.594L6.90751 46.7012L29.7172 48.0726L26.5147 53.6226L26.5364 53.6012ZM29.5429 45.9297L21.7872 45.4583L18.6936 40.5726L26.4275 40.9154L29.5211 45.9083L29.5429 45.9297ZM40.8932 39.4797L18.3886 38.4726L21.2643 32.5797L44.0957 33.9512L40.8932 39.5012V39.4797ZM43.8779 31.8083L36.1222 31.3369L33.0286 26.4512L40.7625 26.794L43.8561 31.7869L43.8779 31.8083ZM55.25 25.3583L32.7454 24.3512L35.6211 18.4583L58.4307 19.8297L55.2282 25.3797L55.25 25.3583Z" fill="#010101"/>
</g>
<defs>
<clipPath id="clip0_10083_378">
<rect width="61" height="60" fill="white" transform="translate(0.785645 6.0083)"/>
</clipPath>
</defs>
</svg>
