<svg width="52" height="70" viewBox="0 0 52 70" fill="none" xmlns="http://www.w3.org/2000/svg">
<g clip-path="url(#clip0_10083_548)">
<path d="M26.4284 9.86963C26.2294 9.86963 26.0503 9.80961 25.8711 9.70957L23.0847 7.84893C22.627 7.54883 22.5075 6.92861 22.8061 6.46845C23.1046 6.0083 23.7216 5.88825 24.1794 6.18836L26.4085 7.68888L28.6376 6.18836C29.0954 5.88825 29.7124 6.0083 30.0109 6.46845C30.3095 6.92861 30.1901 7.54883 29.7323 7.84893L26.9459 9.70957C26.7867 9.82961 26.5876 9.86963 26.3886 9.86963H26.4284Z" fill="#231F20"/>
<path d="M23.642 63.9883C23.3236 63.9883 23.0051 63.8282 22.8061 63.5481C22.5075 63.088 22.627 62.4678 23.0847 62.1677L25.8711 60.307C26.2095 60.0869 26.6474 60.0869 26.9658 60.307L29.7522 62.1677C30.21 62.4678 30.3294 63.088 30.0308 63.5481C29.7323 64.0083 29.1153 64.1283 28.6575 63.8282L26.4284 62.3277L24.1993 63.8282C24.0401 63.9483 23.841 63.9883 23.642 63.9883Z" fill="#231F20"/>
<path d="M32.0012 9.86963C31.8021 9.86963 31.623 9.80961 31.4439 9.70957L28.6575 7.84893C28.1997 7.54883 28.0803 6.92861 28.3788 6.46845C28.6774 6.0083 29.2944 5.88825 29.7521 6.18836L31.9813 7.68888L34.2104 6.18836C34.6682 5.88825 35.2852 6.0083 35.5837 6.46845C35.8822 6.92861 35.7628 7.54883 35.3051 7.84893L32.5187 9.70957C32.3594 9.82961 32.1604 9.86963 31.9614 9.86963H32.0012Z" fill="#231F20"/>
<path d="M29.2148 63.9883C28.8963 63.9883 28.5779 63.8282 28.3788 63.5481C28.0803 63.088 28.1997 62.4678 28.6575 62.1677L31.4439 60.307C31.7822 60.0869 32.2201 60.0869 32.5386 60.307L35.325 62.1677C35.7827 62.4678 35.9021 63.088 35.6036 63.5481C35.3051 64.0083 34.6881 64.1283 34.2303 63.8282L32.0012 62.3277L29.7721 63.8282C29.5929 63.9483 29.4138 63.9883 29.2148 63.9883Z" fill="#231F20"/>
<path d="M20.8557 9.86963C20.6566 9.86963 20.4775 9.80961 20.2984 9.70957L17.512 7.84893C17.0542 7.54883 16.9348 6.92861 17.2333 6.46845C17.5319 6.0083 18.1489 5.88825 18.6066 6.18836L20.8358 7.68888L23.0649 6.18836C23.5227 5.88825 24.1397 6.0083 24.4382 6.46845C24.7367 6.92861 24.6173 7.54883 24.1596 7.84893L21.3731 9.70957C21.2139 9.82961 21.0149 9.86963 20.8159 9.86963H20.8557Z" fill="#231F20"/>
<path d="M23.6419 63.9883C23.4429 63.9883 23.2638 63.9283 23.0847 63.8282L20.8555 62.3277L18.6264 63.8282C18.1686 64.1283 17.5517 64.0083 17.2531 63.5481C16.9546 63.088 17.074 62.4678 17.5318 62.1677L20.3182 60.307C20.6565 60.0869 21.0944 60.0869 21.4128 60.307L24.1992 62.1677C24.657 62.4678 24.7764 63.088 24.4779 63.5481C24.2788 63.8482 23.9604 63.9883 23.6419 63.9883Z" fill="#231F20"/>
<path d="M37.5742 9.86963C37.3751 9.86963 37.196 9.80961 37.0169 9.70957L34.2305 7.84893C33.7727 7.54883 33.6533 6.92861 33.9518 6.46845C34.2504 6.0083 34.8674 5.88825 35.3251 6.18836L37.5543 7.68888L39.7834 6.18836C40.2412 5.88825 40.8582 6.0083 41.1567 6.46845C41.4552 6.92861 41.3358 7.54883 40.8781 7.84893L38.0917 9.70957C37.9324 9.82961 37.7334 9.86963 37.5344 9.86963H37.5742Z" fill="#231F20"/>
<path d="M34.7878 63.9883C34.4693 63.9883 34.1509 63.8282 33.9518 63.5481C33.6533 63.088 33.7727 62.4678 34.2305 62.1677L37.0169 60.307C37.3552 60.0869 37.7931 60.0869 38.1116 60.307L40.898 62.1677C41.3557 62.4678 41.4751 63.088 41.1766 63.5481C40.8781 64.0083 40.2611 64.1283 39.8033 63.8282L37.5742 62.3277L35.345 63.8282C35.1659 63.9483 34.9868 63.9883 34.7878 63.9883Z" fill="#231F20"/>
<path d="M15.2829 9.86961C15.0839 9.86961 14.9048 9.80959 14.7256 9.70956L11.9392 7.84892C11.4815 7.54881 11.362 6.9286 11.6606 6.46844C11.9591 6.00828 12.5761 5.88824 13.0339 6.18835L15.263 7.68886L17.512 6.16834C17.9698 5.86823 18.5868 5.98828 18.8853 6.44843C19.1839 6.90859 19.0645 7.52881 18.6067 7.82891L15.8203 9.68955C15.6611 9.80959 15.462 9.84961 15.263 9.84961L15.2829 9.86961Z" fill="#231F20"/>
<path d="M18.0692 63.9883C17.8702 63.9883 17.691 63.9283 17.5119 63.8282L15.2828 62.3277L13.0537 63.8282C12.5959 64.1283 11.9789 64.0083 11.6804 63.5481C11.3818 63.088 11.5012 62.4678 11.959 62.1677L14.7454 60.307C15.0838 60.0869 15.5216 60.0869 15.8401 60.307L18.6265 62.1677C19.0842 62.4678 19.2037 63.088 18.9051 63.5481C18.7061 63.8482 18.3876 63.9883 18.0692 63.9883Z" fill="#231F20"/>
<path d="M45.9333 64.0083C45.376 64.0083 44.9381 63.5681 44.9381 63.008V57.7061L43.2464 55.1653C43.1469 55.0052 43.0872 54.8051 43.0872 54.6051V15.4115C43.0872 15.2115 43.1469 15.0314 43.2464 14.8514L44.9381 12.3105V7.00865C44.9381 6.44845 45.376 6.0083 45.9333 6.0083C46.4906 6.0083 46.9284 6.44845 46.9284 7.00865V12.6106C46.9284 12.8106 46.8687 12.9907 46.7692 13.1708L45.0774 15.7116V54.305L46.7692 56.8458C46.8687 57.0059 46.9284 57.206 46.9284 57.406V63.008C46.9284 63.5681 46.4906 64.0083 45.9333 64.0083Z" fill="#231F20"/>
<path d="M6.92361 64.0083C6.36633 64.0083 5.92847 63.5681 5.92847 63.008V57.406C5.92847 57.206 5.98818 57.0259 6.08769 56.8458L7.77944 54.305V15.7116L6.08769 13.1708C5.98818 13.0107 5.92847 12.8106 5.92847 12.6106V7.00865C5.92847 6.44845 6.36633 6.0083 6.92361 6.0083C7.48089 6.0083 7.91876 6.44845 7.91876 7.00865V12.3105L9.61051 14.8514C9.71002 15.0114 9.76973 15.2115 9.76973 15.4115V54.6051C9.76973 54.8051 9.71002 54.9852 9.61051 55.1653L7.91876 57.7061V63.008C7.91876 63.5681 7.48089 64.0083 6.92361 64.0083Z" fill="#231F20"/>
<path d="M43.1469 9.86963C42.9479 9.86963 42.7688 9.80961 42.5896 9.70957L39.8032 7.84893C39.3455 7.54883 39.2261 6.92861 39.5246 6.46845C39.8231 6.0083 40.4401 5.88825 40.8979 6.18836L43.127 7.68888L45.3562 6.18836C45.8139 5.88825 46.4309 6.0083 46.7295 6.46845C47.028 6.92861 46.9086 7.54883 46.4508 7.84893L43.6644 9.70957C43.5052 9.82961 43.3062 9.86963 43.1071 9.86963H43.1469Z" fill="#231F20"/>
<path d="M45.9332 63.9883C45.7342 63.9883 45.5551 63.9283 45.3759 63.8282L43.1468 62.3277L40.9177 63.8282C40.4599 64.1283 39.8429 64.0083 39.5444 63.5481C39.2458 63.088 39.3653 62.4678 39.823 62.1677L42.6094 60.307C42.9478 60.0869 43.3856 60.0869 43.7041 60.307L46.4905 62.1677C46.9483 62.4678 47.0677 63.088 46.7691 63.5481C46.5701 63.8282 46.2716 63.9883 45.9332 63.9883Z" fill="#231F20"/>
<path d="M9.70997 9.86961C9.51095 9.86961 9.33182 9.80959 9.15269 9.70956L6.36629 7.84892C5.92842 7.52881 5.7891 6.90859 6.08764 6.44843C6.38619 5.98828 7.02308 5.86823 7.48085 6.16834L9.70997 7.66886L11.9391 6.16834C12.3969 5.86823 13.0139 5.98828 13.3124 6.44843C13.6109 6.90859 13.4915 7.52881 13.0338 7.82891L10.2474 9.68955C10.0881 9.80959 9.8891 9.84961 9.69007 9.84961L9.70997 9.86961Z" fill="#231F20"/>
<path d="M12.4964 63.9883C12.2974 63.9883 12.1183 63.9283 11.9392 63.8282L9.71003 62.3277L7.48091 63.8282C7.02314 64.1283 6.40615 64.0083 6.10761 63.5481C5.80906 63.088 5.92848 62.4678 6.38625 62.1677L9.17266 60.307C9.51101 60.0869 9.94887 60.0869 10.2673 60.307L13.0537 62.1677C13.5115 62.4678 13.6309 63.088 13.3324 63.5481C13.1333 63.8482 12.8149 63.9883 12.4964 63.9883Z" fill="#231F20"/>
<path d="M45.9333 13.6109H18.0891C17.5319 13.6109 17.094 13.1708 17.094 12.6106C17.094 12.0504 17.5319 11.6102 18.0891 11.6102H45.9333C46.4906 11.6102 46.9285 12.0504 46.9285 12.6106C46.9285 13.1708 46.4906 13.6109 45.9333 13.6109Z" fill="#231F20"/>
</g>
<defs>
<clipPath id="clip0_10083_548">
<rect width="41" height="58" fill="white" transform="translate(5.92847 6.0083)"/>
</clipPath>
</defs>
</svg>
