<svg width="75" height="74" viewBox="0 0 75 74" fill="none" xmlns="http://www.w3.org/2000/svg">
<path d="M62.209 12.3707C55.6361 5.79773 46.8867 2.16302 37.5714 2.16302C28.2561 2.16302 19.5067 5.79773 12.9337 12.3707C6.36078 18.9436 2.72607 27.693 2.72607 37.0083C2.72607 46.3236 6.36078 55.073 12.9337 61.646C19.5067 68.2189 28.2561 71.8536 37.5714 71.8536C46.8867 71.8536 55.6361 68.2189 62.209 61.646C68.782 55.073 72.4167 46.3236 72.4167 37.0083C72.4167 27.693 68.782 18.9436 62.209 12.3707ZM37.5714 69.8948C19.4414 69.8948 4.6849 55.1383 4.6849 37.0083C4.6849 27.9324 8.3849 19.7054 14.3484 13.7636L25.5355 24.9507C25.7314 25.1466 25.9708 25.2336 26.232 25.2336C26.4931 25.2336 26.7325 25.1466 26.9284 24.9507C27.3202 24.5589 27.3202 23.9495 26.9284 23.5577L15.7849 12.4142C21.5961 7.25597 29.2355 4.12185 37.5931 4.12185C55.7231 4.12185 70.4796 18.8783 70.4796 37.0083C70.4796 45.366 67.3455 53.0054 62.1873 58.8166L54.809 51.4383C54.4172 51.0466 53.8078 51.0466 53.4161 51.4383C53.0243 51.8301 53.0243 52.4395 53.4161 52.8313L60.8378 60.253C54.8743 66.2166 46.6472 69.9165 37.5931 69.9165L37.5714 69.8948Z" fill="#010101" stroke="#231F20" stroke-width="0.25" stroke-miterlimit="10"/>
<path d="M51.4571 43.9077C51.4571 43.4507 51.1089 43.0807 50.6518 43.0371C50.6518 43.0371 50.3471 43.0154 49.8466 43.0154C48.0183 43.0154 43.4477 43.3201 40.3571 46.2365C39.2036 47.303 38.3983 48.6089 37.8324 49.893V43.4289C37.8324 43.4289 38.0066 43.4289 38.0936 43.4289C39.9219 43.4289 44.4924 43.1242 47.583 40.2077C51.4571 36.573 51.4354 30.4136 51.4354 30.1524C51.4354 29.6954 51.0871 29.3254 50.6301 29.2818C50.6301 29.2818 50.3254 29.2601 49.8466 29.2601C48.0183 29.2601 43.4477 29.5648 40.3571 32.4812C39.2036 33.5477 38.3983 34.8536 37.8324 36.1377V32.416C38.5942 31.6542 42.316 27.6495 42.2507 22.7959C42.1636 17.4854 37.593 13.3501 37.3971 13.1759C37.0489 12.8712 36.5483 12.893 36.2218 13.1759C36.026 13.3501 31.586 17.616 31.673 22.9265C31.7383 27.3448 34.916 30.936 36.0913 32.133V36.116C35.5254 34.8101 34.7201 33.526 33.5666 32.4595C30.476 29.5648 25.9054 29.2383 24.0771 29.2383C23.5983 29.2383 23.2936 29.2601 23.2936 29.2601C22.8366 29.3036 22.4883 29.6736 22.4883 30.1307C22.4883 30.3918 22.4666 36.5512 26.3407 40.186C29.4313 43.0807 34.0019 43.4071 35.8301 43.4071C35.9171 43.4071 36.0042 43.4071 36.0913 43.4071V49.8712C35.5254 48.5654 34.7201 47.2812 33.5666 46.2148C30.476 43.3201 25.9054 42.9936 24.0771 42.9936C23.5983 42.9936 23.2936 43.0154 23.2719 43.0154C22.8148 43.0589 22.4666 43.4289 22.4666 43.886C22.4666 44.1471 22.4448 50.3065 26.3189 53.9412C29.4095 56.8359 33.9801 57.1624 35.8083 57.1624C35.8954 57.1624 35.9824 57.1624 36.0695 57.1624V63.2565C36.0695 63.7354 36.4613 64.1271 36.9401 64.1271C37.4189 64.1271 37.8107 63.7354 37.8107 63.2565V57.1624C37.8107 57.1624 37.9848 57.1624 38.0718 57.1624C39.9001 57.1624 44.4707 56.8577 47.5613 53.9412C51.4354 50.3065 51.4136 44.1471 51.4136 43.886L51.4571 43.9077ZM41.5542 33.7654C44.1007 31.393 47.9313 31.0448 49.6507 31.023C49.5201 32.7207 48.9324 36.5512 46.386 38.9236C43.8395 41.296 40.0089 41.6442 38.2895 41.666C38.4201 39.9683 39.0077 36.1377 41.5542 33.7654ZM27.5377 38.9454C24.9913 36.573 24.4036 32.7207 24.273 31.0448C25.9924 31.0665 29.8448 31.393 32.3695 33.7871C34.916 36.1595 35.5036 40.0118 35.6342 41.6877C33.9148 41.666 30.0624 41.3395 27.5377 38.9454ZM27.5377 52.6789C24.9913 50.3065 24.4036 46.4542 24.273 44.7783C25.9924 44.8001 29.8448 45.1265 32.3695 47.5207C34.916 49.893 35.5036 53.7454 35.6342 55.4212C33.9148 55.3995 30.0624 55.073 27.5377 52.6789ZM36.853 15.0912C38.0066 16.3318 40.466 19.3354 40.5095 22.8177C40.553 26.3001 38.2024 29.3907 37.0924 30.653C35.9389 29.4124 33.4795 26.3871 33.436 22.9265C33.3924 19.4442 35.743 16.3536 36.853 15.0912ZM46.4077 52.6789C43.8613 55.0512 40.0307 55.3995 38.3113 55.4212C38.4419 53.7236 39.0295 49.893 41.576 47.5207C44.1224 45.1483 47.953 44.8001 49.6724 44.7783C49.5419 46.476 48.9542 50.3065 46.4077 52.6789Z" fill="#010101" stroke="#231F20" stroke-width="0.25" stroke-miterlimit="10"/>
</svg>
