<svg width="72" height="74" viewBox="0 0 72 74" fill="none" xmlns="http://www.w3.org/2000/svg">
<path d="M59.7655 12.523C53.3109 5.99362 44.7049 2.38068 35.5609 2.38068C26.417 2.38068 17.8324 5.97185 11.3564 12.523C4.90184 19.0524 1.33032 27.7583 1.33032 37.0083C1.33032 46.2583 4.88032 54.9424 11.3564 61.4936C17.8109 68.023 26.417 71.636 35.5609 71.636C44.7049 71.636 53.2894 68.0448 59.7655 61.4936C66.22 54.9642 69.7915 46.2583 69.7915 37.0083C69.7915 27.7583 66.2415 19.0742 59.7655 12.523ZM35.5609 69.6771C17.7464 69.6771 3.26669 55.0295 3.26669 37.0083C3.26669 27.9977 6.90275 19.8142 12.7549 13.916L21.2964 22.5566C21.49 22.7524 21.7267 22.8395 21.9849 22.8395C22.2431 22.8395 22.4797 22.7524 22.6734 22.5566C23.0391 22.1866 23.0391 21.5554 22.6734 21.1854L14.1749 12.5883C19.8764 7.47362 27.3852 4.36126 35.5824 4.36126C53.397 4.36126 67.8767 19.0089 67.8767 37.0301C67.8767 45.3442 64.8 52.9183 59.744 58.686L52.7946 51.656C52.4288 51.286 51.8049 51.286 51.4391 51.656C51.0734 52.026 51.0734 52.6571 51.4391 53.0271L58.4315 60.1007C52.5794 66.0207 44.5112 69.6989 35.604 69.6989L35.5609 69.6771Z" fill="#010101" stroke="#231F20" stroke-width="0.25" stroke-miterlimit="10"/>
<path d="M47.5234 27.8236L43.2849 22.2736V19.6836C43.2849 19.2265 42.9191 18.8565 42.4673 18.8565H28.2028C27.7509 18.8565 27.3852 19.2265 27.3852 19.6836V22.2736L23.0391 27.9542C23.0391 27.9542 23.0391 27.9759 23.0176 27.9977C23.0176 27.9977 23.0176 27.9977 23.0176 28.0195C23.0176 28.0195 23.0176 28.0412 22.9961 28.063C22.9961 28.063 22.9961 28.0847 22.9961 28.1065C22.9961 28.1065 22.9961 28.1283 22.9961 28.15C22.9961 28.15 22.9961 28.1718 22.9961 28.1936C22.9961 28.1936 22.9961 28.2153 22.9961 28.2371C22.9961 28.2371 22.9961 28.2589 22.9961 28.2806C22.9961 28.2806 22.9961 28.3024 22.9961 28.3242C22.9961 28.3242 22.9961 28.3459 22.9961 28.3677C22.9961 28.3677 22.9961 28.3894 22.9961 28.4112C22.9961 28.4112 22.9961 28.433 22.9961 28.4547C22.9961 28.4547 22.9961 28.4547 22.9961 28.4765V52.3306C22.9961 53.8977 24.244 55.16 25.7931 55.16H45.2213C46.7703 55.16 48.0182 53.8977 48.0182 52.3306V28.4765C48.0182 28.2153 47.8891 27.9759 47.717 27.8236H47.5234ZM28.59 23.4053H40.7676L37.5188 27.6495H25.3412L28.59 23.4053ZM42.4458 23.9494L45.2858 27.6495H39.6058L42.4458 23.9494ZM29.0203 20.5324H41.6282V21.7294H29.0203V20.5324ZM24.4806 52.3306V29.3253H37.0885V53.4842H25.6209C24.997 53.4842 24.4806 52.9618 24.4806 52.3306ZM46.1894 52.3306C46.1894 52.9618 45.6731 53.4842 45.0491 53.4842H38.7452V29.3253H46.1679V52.3306H46.1894Z" fill="#010101" stroke="#231F20" stroke-width="0.25" stroke-miterlimit="10"/>
</svg>
