<svg width="74" height="74" viewBox="0 0 74 74" fill="none" xmlns="http://www.w3.org/2000/svg">
<path d="M61.0114 12.523C54.5702 5.99362 45.982 2.38068 36.857 2.38068C27.732 2.38068 19.1652 5.97185 12.7026 12.523C6.26138 19.0524 2.69727 27.7583 2.69727 37.0083C2.69727 46.2583 6.23991 54.9424 12.7026 61.4936C19.1437 68.023 27.732 71.636 36.857 71.636C45.982 71.636 54.5487 68.0448 61.0114 61.4936C67.4526 54.9642 71.0167 46.2583 71.0167 37.0083C71.0167 27.7583 67.474 19.0742 61.0114 12.523ZM36.857 69.6771C19.0793 69.6771 4.62962 55.0295 4.62962 37.0083C4.62962 27.9977 8.25815 19.8142 14.0981 13.916L22.622 22.5566C22.8152 22.7524 23.0514 22.8395 23.309 22.8395C23.5667 22.8395 23.8029 22.7524 23.9961 22.5566C24.3611 22.1866 24.3611 21.5554 23.9961 21.1854L15.5152 12.5883C21.2049 7.47362 28.6981 4.36126 36.8784 4.36126C54.6561 4.36126 69.1058 19.0089 69.1058 37.0301C69.1058 45.3442 66.0355 52.9183 60.9899 58.686L54.0549 51.656C53.6899 51.286 53.0673 51.286 52.7023 51.656C52.3373 52.026 52.3373 52.6571 52.7023 53.0271L59.6802 60.1007C53.8402 66.0207 45.7887 69.6989 36.8999 69.6989L36.857 69.6771Z" fill="#010101" stroke="#231F20" stroke-width="0.25" stroke-miterlimit="10"/>
<path d="M12.8958 37.0083C12.8958 33.1777 15.966 30.0436 19.7449 30.0436C22.536 30.0436 24.7905 31.6759 25.864 34.1136L23.3949 34.8101C22.7078 33.3736 21.3552 32.5248 19.7449 32.5248C17.2972 32.5248 15.4937 34.5053 15.4937 36.9865C15.4937 39.4677 17.2972 41.4265 19.7449 41.4265C21.5484 41.4265 23.1158 40.3818 23.6955 38.423H19.8093L19.7663 36.2248H26.229V37.2042C26.229 41.1001 23.4593 43.9295 19.7449 43.9295C16.0305 43.9295 12.8958 40.8171 12.8958 36.9865V37.0083Z" fill="#231F20"/>
<path d="M28.9558 30.1959H33.0996L36.6208 41.8618L40.142 30.1959H44.3073V43.7989H41.8167V32.6553L38.4673 43.7989H34.7958L31.4679 32.7206V43.7989H28.9773V30.1959H28.9558Z" fill="#231F20"/>
<path d="M47.1628 37.0083C47.1628 33.1777 50.2117 30.0436 53.9905 30.0436C57.7693 30.0436 60.8181 33.1559 60.8396 37.0083C60.8396 40.8389 57.7693 43.9512 53.9905 43.9512C50.2117 43.9512 47.1628 40.8389 47.1628 37.0083ZM58.2631 37.0083C58.2631 34.5271 56.4381 32.4812 53.9905 32.4812C51.5428 32.4812 49.7393 34.5271 49.7393 37.0083C49.7393 39.4895 51.5428 41.4918 53.9905 41.4918C56.4381 41.4918 58.2631 39.4895 58.2631 37.0083Z" fill="#231F20"/>
</svg>
