<svg width="74" height="74" viewBox="0 0 74 74" fill="none" xmlns="http://www.w3.org/2000/svg">
<g clip-path="url(#clip0_10083_590)">
<path d="M36.5664 70.0083C35.8259 70.0083 35.2336 69.4248 35.2547 68.6954C35.2547 67.9868 35.8682 67.4033 36.5875 67.4033C37.328 67.4033 37.8992 68.0077 37.8992 68.7371C37.8992 69.4456 37.3068 70.0083 36.5875 70.0083H36.5664ZM43.6747 68.0702C43.4843 67.3616 43.9074 66.6531 44.6267 66.4864C45.3248 66.2988 46.0441 66.7156 46.2345 67.4241C46.4038 68.1119 45.9806 68.8204 45.2825 69.008C45.2825 69.008 45.0498 69.0497 44.944 69.0497C44.3517 69.0497 43.8228 68.6537 43.6747 68.0702ZM27.8714 68.7787C27.1521 68.5912 26.7501 67.8618 26.9617 67.1741C27.1521 66.4864 27.8714 66.0696 28.5907 66.278C29.2888 66.4655 29.6908 67.1949 29.5004 67.8826C29.3311 68.4661 28.8022 68.8204 28.231 68.8204C28.1041 68.8204 27.9772 68.8204 27.8714 68.7787ZM51.6292 65.2776C51.2696 64.6524 51.4811 63.8605 52.1158 63.5062C52.7505 63.152 53.5544 63.3812 53.914 64.0064C54.2737 64.6316 54.041 65.4235 53.4063 65.7778C53.1947 65.9028 52.9832 65.9445 52.7716 65.9445C52.3062 65.9445 51.8408 65.7153 51.608 65.2776H51.6292ZM19.7899 65.361C19.1764 64.9859 18.9649 64.1731 19.3457 63.5688C19.7265 62.9436 20.5304 62.7352 21.165 63.1103C21.7786 63.4854 21.9901 64.2773 21.6093 64.9025C21.3554 65.2985 20.9323 65.5277 20.4669 65.5277C20.2342 65.5277 20.0015 65.4652 19.7899 65.361ZM58.5683 60.5678C58.0605 60.0468 58.0817 59.2341 58.5894 58.7131C59.1183 58.2129 59.9645 58.2337 60.4723 58.7131C60.98 59.2341 60.9589 60.0468 60.4723 60.5678C60.2184 60.8179 59.8799 60.9221 59.5414 60.9221C59.2029 60.9221 58.8644 60.7971 58.5894 60.547L58.5683 60.5678ZM12.9143 59.9635C12.4066 59.4425 12.4278 58.6297 12.9566 58.1295C13.4855 57.6294 14.3106 57.6502 14.8183 58.1712C15.3261 58.6714 15.3261 59.505 14.8183 60.0051C14.5433 60.2552 14.226 60.3594 13.8875 60.3594C13.549 60.3594 13.2105 60.2344 12.9355 59.9635H12.9143ZM64.0476 54.2325C63.4129 53.8574 63.2225 53.0654 63.5822 52.4403C63.9418 51.8151 64.7669 51.6275 65.4015 51.9818C66.0151 52.3569 66.2266 53.1488 65.867 53.774C65.6131 54.17 65.1688 54.3992 64.7246 54.3992C64.4919 54.3992 64.2591 54.3575 64.0476 54.2325ZM7.68888 53.0238C7.32924 52.3986 7.56195 51.6067 8.19662 51.2524C8.83129 50.8981 9.6352 51.1273 9.99485 51.7525C10.3545 52.3777 10.1218 53.1905 9.48712 53.5239C9.27556 53.649 9.064 53.6906 8.85245 53.6906C8.38702 53.6906 7.9216 53.4614 7.68888 53.0238ZM67.6652 46.7093C66.9671 46.5217 66.5439 45.8132 66.7343 45.1046C66.9248 44.4169 67.6652 44.0001 68.3633 44.2085C69.0615 44.396 69.4846 45.1046 69.2942 45.8132C69.1249 46.3758 68.596 46.7718 68.0037 46.7718C68.0037 46.7718 67.771 46.7718 67.6652 46.7093ZM4.47322 44.9796C4.30398 44.271 4.72709 43.5625 5.44638 43.3957C6.14452 43.229 6.86381 43.6458 7.03306 44.3544C7.22346 45.0421 6.77919 45.7506 6.08105 45.9174C6.08105 45.9174 5.8695 45.959 5.76372 45.959C5.1502 45.959 4.62131 45.5631 4.47322 44.9796ZM69.1673 38.5192C68.4268 38.5192 67.8344 37.9357 67.8556 37.2271C67.8556 36.4977 68.448 35.9142 69.1673 35.9142C69.9077 35.935 70.5001 36.5186 70.5001 37.2271C70.5001 37.9565 69.8865 38.5192 69.1673 38.5192ZM4.79056 37.7064C4.07126 37.7064 3.47891 37.1021 3.50006 36.3727C3.50006 35.6641 4.11358 35.0806 4.83287 35.1014C5.57332 35.1014 6.14452 35.7058 6.14452 36.4352C6.14452 37.1438 5.53101 37.7064 4.81171 37.7064H4.79056ZM66.8401 29.308C66.6709 28.6202 67.094 27.8908 67.7921 27.7241C68.4903 27.5366 69.2096 27.9534 69.4 28.6411C69.5904 29.3496 69.1673 30.0582 68.4691 30.2457C68.3422 30.2457 68.2364 30.2874 68.1306 30.2874C67.5383 30.2874 66.9882 29.8915 66.8401 29.308ZM5.72141 29.433C5.00211 29.2454 4.60016 28.516 4.81171 27.8283C5.02327 27.1406 5.74256 26.7446 6.4407 26.9322C7.13884 27.1406 7.56195 27.8492 7.35039 28.5577C7.18115 29.1204 6.65226 29.4955 6.08105 29.4955C5.95412 29.4955 5.82718 29.4955 5.72141 29.433ZM63.7937 21.9306C63.4129 21.3054 63.6456 20.5135 64.2803 20.1592C64.915 19.805 65.7189 20.0134 66.0785 20.6385C66.4382 21.2637 66.2266 22.0557 65.5919 22.4308C65.3804 22.535 65.1688 22.5975 64.9361 22.5975C64.4707 22.5975 64.0264 22.3474 63.7937 21.9306ZM8.78898 21.7014C8.15431 21.3263 7.96391 20.5135 8.34471 19.9092C8.72551 19.284 9.52943 19.0964 10.1641 19.4715C10.7776 19.8466 10.9892 20.6385 10.6084 21.2637C10.3545 21.6597 9.91023 21.8889 9.46596 21.8889C9.23325 21.8889 9.00054 21.8264 8.78898 21.7014ZM58.8856 15.5953C58.3779 15.0951 58.3779 14.2615 58.8856 13.7614C59.4145 13.2404 60.2396 13.2612 60.7473 13.7614C61.255 14.2824 61.255 15.0951 60.7473 15.5953C60.4934 15.8662 60.1549 15.9912 59.8164 15.9912C59.478 15.9912 59.1395 15.8454 58.8856 15.5953ZM13.8029 14.9909C13.2951 14.4699 13.3163 13.6572 13.8452 13.157C14.3741 12.6569 15.2203 12.6777 15.7069 13.1987C16.2146 13.7197 16.2146 14.5533 15.7069 15.0326H15.6857C15.4319 15.2827 15.1145 15.4077 14.776 15.4077C14.4375 15.4077 14.0779 15.2619 13.824 14.9909H13.8029ZM52.4754 10.7188C51.8408 10.3645 51.6292 9.57256 51.9888 8.94736C52.3697 8.32216 53.1736 8.11376 53.8082 8.46804C54.4429 8.84316 54.6545 9.63508 54.2948 10.2603C54.041 10.6771 53.5967 10.9063 53.1524 10.9063C52.9197 10.9063 52.687 10.8438 52.4754 10.7188ZM20.4034 9.82264C20.0649 9.19744 20.2977 8.40552 20.9323 8.05124C21.567 7.69696 22.3709 7.94704 22.7306 8.57224C23.0902 9.19744 22.8363 9.98936 22.2017 10.3436C22.0113 10.4478 21.7786 10.4895 21.567 10.4895C21.1016 10.4895 20.6573 10.2603 20.4034 9.82264ZM45.0075 7.65529C44.3093 7.46773 43.8862 6.75917 44.0766 6.07145C44.267 5.3629 44.9863 4.96694 45.6845 5.1545C46.4038 5.32122 46.8269 6.05061 46.6365 6.73833C46.4672 7.32185 45.9383 7.69696 45.346 7.69696C45.346 7.69696 45.1344 7.69696 45.0075 7.65529ZM28.1464 6.50909C27.9772 5.80053 28.4214 5.11282 29.1196 4.92526C29.8389 4.75854 30.5582 5.19618 30.7274 5.90473C30.8967 6.59245 30.4524 7.30101 29.7542 7.46773C29.7542 7.46773 29.5427 7.50941 29.4369 7.50941C28.8446 7.50941 28.2945 7.11345 28.1464 6.50909ZM35.6778 5.32122C35.6778 4.59182 36.249 4.0083 36.9895 4.0083C37.7299 4.0083 38.3223 4.59182 38.3223 5.32122C38.3223 6.02977 37.7299 6.63413 36.9895 6.63413C36.249 6.63413 35.6778 6.02977 35.6778 5.32122Z" fill="#231F20"/>
<path d="M32.293 48.4181C31.9545 48.4181 31.616 48.2931 31.3621 48.043L20.2766 37.1229C19.7688 36.6227 19.7688 35.7891 20.2766 35.289C20.7843 34.7888 21.6305 34.7888 22.1383 35.289L32.293 45.2921L51.8408 26.0361C52.3485 25.5359 53.1948 25.5359 53.7025 26.0361C54.2102 26.5362 54.2102 27.3698 53.7025 27.87L33.2238 48.043C32.97 48.2931 32.6315 48.4181 32.293 48.4181Z" fill="#231F20"/>
</g>
<defs>
<clipPath id="clip0_10083_590">
<rect width="67" height="66" fill="white" transform="translate(3.5 4.0083)"/>
</clipPath>
</defs>
</svg>
