<?xml version="1.0" encoding="UTF-8"?>
<svg version="1.1" xmlns="http://www.w3.org/2000/svg" width="61" height="72">
<path d="M0 0 C20.13 0 40.26 0 61 0 C61 23.76 61 47.52 61 72 C40.87 72 20.74 72 0 72 C0 48.24 0 24.48 0 0 Z " fill="#0F0F0F" transform="translate(0,0)"/>
<path d="M0 0 C14.52 0 29.04 0 44 0 C44 12.54 44 25.08 44 38 C37.89440345 38.02290553 31.78895484 38.04283367 25.68334961 38.05493164 C23.60456844 38.05997288 21.52579084 38.06680574 19.44702148 38.07543945 C16.46597414 38.08751422 13.48497351 38.09323024 10.50390625 38.09765625 C9.10078941 38.10539818 9.10078941 38.10539818 7.66932678 38.11329651 C6.37810158 38.11340981 6.37810158 38.11340981 5.06079102 38.11352539 C4.29912125 38.115746 3.53745148 38.11796661 2.75270081 38.12025452 C1 38 1 38 0 37 C-0.08857875 34.26129758 -0.11530707 31.54725017 -0.09765625 28.80859375 C-0.09614563 27.7190741 -0.09614563 27.7190741 -0.09460449 26.60754395 C-0.08935716 23.88417999 -0.075396 21.16083847 -0.0625 18.4375 C-0.041875 12.353125 -0.02125 6.26875 0 0 Z " fill="#F4F4F4" transform="translate(9,23)"/>
<path d="M0 0 C20.13 0 40.26 0 61 0 C61 23.76 61 47.52 61 72 C40.87 72 20.74 72 0 72 C0 48.24 0 24.48 0 0 Z M11.05810547 8.40649414 C10.70893066 8.93235107 10.35975586 9.45820801 10 10 C9.56558594 10.59039062 9.13117187 11.18078125 8.68359375 11.7890625 C7.84962303 13.0177968 7.01629441 14.24696714 6.18359375 15.4765625 C5 17 5 17 3 18 C3 32.19 3 46.38 3 61 C3.66 61 4.32 61 5 61 C5 61.99 5 62.98 5 64 C6.54578181 66.09668095 7.45663216 66.89651009 10.03549194 67.38768005 C11.2020079 67.39578453 11.2020079 67.39578453 12.39208984 67.40405273 C13.71894302 67.42307899 13.71894302 67.42307899 15.07260132 67.44248962 C16.02575226 67.43955399 16.9789032 67.43661835 17.9609375 67.43359375 C19.43501572 67.44145653 19.43501572 67.44145653 20.93887329 67.44947815 C23.01848404 67.45590351 25.09813111 67.45455473 27.17773438 67.44604492 C30.35613022 67.43755043 33.53272001 67.4662647 36.7109375 67.49804688 C38.73177029 67.49965937 40.75260627 67.49908042 42.7734375 67.49609375 C43.72253998 67.50732773 44.67164246 67.51856171 45.64950562 67.53013611 C49.62910993 67.48823062 52.44698235 67.24751807 56.10864258 65.60864258 C59.06608716 61.52960614 58.61977471 57.67591149 58.48828125 52.765625 C58.47766914 51.27588165 58.47766914 51.27588165 58.46684265 49.75604248 C58.43887288 46.58659267 58.37612801 43.41891503 58.3125 40.25 C58.28742054 38.10028594 58.26460676 35.95054418 58.24414062 33.80078125 C58.18903822 28.5332504 58.10538665 23.2667518 58 18 C57.01 18 56.02 18 55 18 C54.896875 17.4225 54.79375 16.845 54.6875 16.25 C53.89875275 13.66864537 52.64213978 12.12109722 51 10 C50.505 8.515 50.505 8.515 50 7 C44.78559487 6.92587235 39.57149607 6.87140896 34.35668945 6.83520508 C32.58254657 6.82011359 30.80844102 6.79963809 29.03442383 6.77368164 C26.48509513 6.73731359 23.93625941 6.72027762 21.38671875 6.70703125 C20.19594978 6.68380547 20.19594978 6.68380547 18.98112488 6.66011047 C14.75330676 6.59945721 14.75330676 6.59945721 11.05810547 8.40649414 Z " fill="#FDFDFD" transform="translate(0,0)"/>
<path d="M0 0 C2.0625 0.4375 2.0625 0.4375 4 1 C4 2.32 4 3.64 4 5 C4.66 5 5.32 5 6 5 C6.556875 6.2065625 6.556875 6.2065625 7.125 7.4375 C8.69222824 10.13237187 8.69222824 10.13237187 10.97265625 10.5546875 C12.97373565 10.78761738 14.98784139 10.90104138 17 11 C17.268125 10.29875 17.53625 9.5975 17.8125 8.875 C19.0681449 5.8350176 20.50235123 2.9272226 22 0 C23.32 0.33 24.64 0.66 26 1 C25.34 4.63 24.68 8.26 24 12 C22.35 12.33 20.7 12.66 19 13 C19 13.66 19 14.32 19 15 C9.07079646 16.60078663 9.07079646 16.60078663 5 14 C0.74589898 9.84258309 -0.75944869 7.13405844 -1 1 C-0.67 0.67 -0.34 0.34 0 0 Z " fill="#131313" transform="translate(18,29)"/>
<path d="M0 0 C2.20383585 -0.00969571 4.40673525 -0.04070084 6.61035156 -0.07226562 C8.00878351 -0.07879652 9.40722215 -0.08404665 10.80566406 -0.08789062 C12.08231934 -0.09723633 13.35897461 -0.10658203 14.67431641 -0.11621094 C17.84472656 0.24023438 17.84472656 0.24023438 19.78466797 1.63574219 C20.84472656 3.24023438 20.84472656 3.24023438 20.84472656 5.24023438 C8.96472656 5.24023438 -2.91527344 5.24023438 -15.15527344 5.24023438 C-13.24836635 -2.38739399 -6.75639466 0.01804111 0 0 Z " fill="#F5F5F5" transform="translate(28.1552734375,12.759765625)"/>
<path d="M0 0 C1.98 0.495 1.98 0.495 4 1 C3.67 1.66 3.34 2.32 3 3 C2.67 3 2.34 3 2 3 C1.67 4.65 1.34 6.3 1 8 C-1 5 -1 5 -0.625 2.3125 C-0.41875 1.549375 -0.2125 0.78625 0 0 Z " fill="#313131" transform="translate(18,29)"/>
</svg>
