<svg width="23" height="23" viewBox="0 0 23 23" fill="none" xmlns="http://www.w3.org/2000/svg">
<path fill-rule="evenodd" clip-rule="evenodd" d="M11.501 0.5C8.51358 0.5 8.13866 0.513063 6.96532 0.566458C5.79426 0.620083 4.99492 0.805479 4.2955 1.0775C3.57201 1.35846 2.9583 1.73429 2.34687 2.34594C1.73499 2.95735 1.35915 3.57106 1.07728 4.29431C0.804566 4.99396 0.618939 5.79352 0.56623 6.9641C0.51375 8.13744 0.5 8.51258 0.5 11.5C0.5 14.4874 0.513292 14.8612 0.566459 16.0345C0.620314 17.2056 0.805712 18.0049 1.07751 18.7043C1.3587 19.4278 1.73453 20.0415 2.34619 20.6529C2.95738 21.2648 3.57109 21.6415 4.29412 21.9225C4.99401 22.1945 5.79358 22.3799 6.9644 22.4335C8.13775 22.4869 8.51244 22.5 11.4997 22.5C14.4873 22.5 14.8611 22.4869 16.0345 22.4335C17.2055 22.3799 18.0058 22.1945 18.7056 21.9225C19.4289 21.6415 20.0417 21.2648 20.6529 20.6529C21.2648 20.0415 21.6406 19.4278 21.9225 18.7045C22.1929 18.0049 22.3785 17.2053 22.4335 16.0347C22.4862 14.8614 22.5 14.4874 22.5 11.5C22.5 8.51258 22.4862 8.13767 22.4335 6.96433C22.3785 5.79329 22.1929 4.99396 21.9225 4.29454C21.6406 3.57106 21.2648 2.95735 20.6529 2.34594C20.041 1.73406 19.4291 1.35823 18.705 1.0775C18.0037 0.805479 17.2039 0.620083 16.0328 0.566458C14.8595 0.513063 14.486 0.5 11.4976 0.5H11.501ZM10.5125 2.48173C10.8054 2.48127 11.1322 2.48173 11.4993 2.48173C14.4363 2.48173 14.7844 2.49227 15.9443 2.54498C17.0168 2.59402 17.5989 2.77323 17.9866 2.92379C18.4999 3.12317 18.8659 3.3615 19.2507 3.7465C19.6357 4.1315 19.874 4.49817 20.0739 5.0115C20.2244 5.39879 20.4039 5.98088 20.4527 7.05338C20.5054 8.21296 20.5169 8.56129 20.5169 11.4969C20.5169 14.4325 20.5054 14.7809 20.4527 15.9405C20.4037 17.013 20.2244 17.595 20.0739 17.9823C19.8745 18.4957 19.6357 18.8612 19.2507 19.246C18.8657 19.631 18.5002 19.8693 17.9866 20.0687C17.5993 20.2199 17.0168 20.3987 15.9443 20.4477C14.7847 20.5004 14.4363 20.5119 11.4993 20.5119C8.56203 20.5119 8.21392 20.5004 7.05433 20.4477C5.98181 20.3982 5.39972 20.219 5.01174 20.0684C4.4984 19.8691 4.13173 19.6307 3.74673 19.2457C3.36172 18.8607 3.12339 18.495 2.92355 17.9814C2.77299 17.5941 2.59355 17.012 2.54474 15.9395C2.49203 14.78 2.48149 14.4316 2.48149 11.4942C2.48149 8.55671 2.49203 8.21021 2.54474 7.05063C2.59378 5.97813 2.77299 5.39604 2.92355 5.00829C3.12293 4.49496 3.36172 4.12829 3.74673 3.74329C4.13173 3.35829 4.4984 3.11996 5.01174 2.92013C5.3995 2.76888 5.98181 2.59013 7.05433 2.54085C8.06909 2.49502 8.46234 2.48127 10.5125 2.47898V2.48173ZM17.3723 4.30874C16.6435 4.30874 16.0523 4.89931 16.0523 5.62828C16.0523 6.35703 16.6435 6.94828 17.3723 6.94828C18.101 6.94828 18.6923 6.35703 18.6923 5.62828C18.6923 4.89953 18.101 4.30828 17.3723 4.30828V4.30874ZM11.5017 5.85024C8.38199 5.85024 5.85265 8.37955 5.85265 11.4992C5.85265 14.6188 8.38199 17.147 11.5017 17.147C14.6213 17.147 17.1498 14.6188 17.1498 11.4992C17.1498 8.37955 14.6211 5.85024 11.5014 5.85024H11.5017ZM11.4984 7.83414C13.5234 7.83414 15.1651 9.47566 15.1651 11.5008C15.1651 13.5257 13.5234 15.1675 11.4984 15.1675C9.47326 15.1675 7.83172 13.5257 7.83172 11.5008C7.83172 9.47566 9.47326 7.83414 11.4984 7.83414Z" fill="#010101"/>
</svg>
