<svg width="18" height="23" viewBox="0 0 18 23" fill="none" xmlns="http://www.w3.org/2000/svg">
<path d="M15.6532 2.75445C14.1389 1.30068 12.0432 0.5 9.75219 0.5C6.25263 0.5 4.10023 1.93452 2.91085 3.13786C1.44501 4.62085 0.604492 6.58998 0.604492 8.54043C0.604492 10.9894 1.62883 12.869 3.34419 13.5683C3.45935 13.6154 3.57523 13.6392 3.68884 13.6392C4.05073 13.6392 4.33746 13.4024 4.4368 13.0226C4.49473 12.8047 4.62887 12.2671 4.68723 12.0338C4.81209 11.5729 4.7112 11.3512 4.43887 11.0303C3.94275 10.4433 3.7117 9.7491 3.7117 8.84568C3.7117 6.16223 5.70984 3.3103 9.41321 3.3103C12.3517 3.3103 14.177 4.98041 14.177 7.66881C14.177 9.3653 13.8116 10.9364 13.1478 12.0929C12.6866 12.8965 11.8756 13.8544 10.6305 13.8544C10.0921 13.8544 9.60846 13.6333 9.30329 13.2477C9.01501 12.8832 8.91997 12.4123 9.03594 11.9216C9.16691 11.3671 9.34553 10.7887 9.51839 10.2296C9.83366 9.20843 10.1317 8.2439 10.1317 7.47437C10.1317 6.15815 9.3225 5.27372 8.11829 5.27372C6.58791 5.27372 5.38895 6.82808 5.38895 8.81238C5.38895 9.78554 5.64758 10.5134 5.76467 10.7929C5.57187 11.6097 4.42606 16.4661 4.20872 17.3818C4.08304 17.9164 3.32601 22.1387 4.57903 22.4754C5.98686 22.8536 7.2453 18.7414 7.37338 18.2768C7.4772 17.8988 7.84041 16.4698 8.06299 15.5914C8.74263 16.246 9.83692 16.6886 10.9017 16.6886C12.909 16.6886 14.7142 15.7853 15.9848 14.1453C17.2171 12.5546 17.8958 10.3375 17.8958 7.90273C17.8957 5.99929 17.0783 4.12275 15.6532 2.75445Z" fill="#010101"/>
</svg>
