<?xml version="1.0" encoding="UTF-8"?>
<svg version="1.1" xmlns="http://www.w3.org/2000/svg" width="64" height="58">
<path d="M0 0 C21.12 0 42.24 0 64 0 C64 19.14 64 38.28 64 58 C42.88 58 21.76 58 0 58 C0 38.86 0 19.72 0 0 Z " fill="#F9F9F9" transform="translate(0,0)"/>
<path d="M0 0 C1.93742341 -0.02703381 3.87495479 -0.04641125 5.8125 -0.0625 C6.89144531 -0.07410156 7.97039063 -0.08570313 9.08203125 -0.09765625 C12 0 12 0 15 1 C15 1.66 15 2.32 15 3 C16.32 3.33 17.64 3.66 19 4 C19 4.99 19 5.98 19 7 C19.99 7.33 20.98 7.66 22 8 C22.495 10.97 22.495 10.97 23 14 C23.66 14 24.32 14 25 14 C25.59177511 20.41747234 25.29768448 24.91248257 21.5 30.2421875 C18.47474459 33.78740868 15.49714248 36.50095251 11 38 C9.18945873 38.09398229 7.37547219 38.12991987 5.5625 38.125 C4.14130859 38.12886719 4.14130859 38.12886719 2.69140625 38.1328125 C0.27268604 38.01345621 -1.72495423 37.81880918 -4 37 C-4.33 36.34 -4.66 35.68 -5 35 C-5.99 34.67 -6.98 34.34 -8 34 C-8 33.34 -8 32.68 -8 32 C-8.66 32 -9.32 32 -10 32 C-13.45291817 25.52577843 -14.20754024 19.08290194 -12.49609375 11.87890625 C-10.93480851 7.73034832 -8.72803793 5.30783301 -5 3 C-2.1875 2.25 -2.1875 2.25 0 2 C0 1.34 0 0.68 0 0 Z " fill="#F9F9F9" transform="translate(25,8)"/>
<path d="M0 0 C0.495 1.485 0.495 1.485 1 3 C2.3153341 3.70151152 3.65117592 4.36525925 5 5 C7.9758353 7.31453856 8.50153711 9.31137465 9 13 C9.66 13 10.32 13 11 13 C12.6581589 18.64852503 13.32133243 25.69955393 11.10546875 31.234375 C10.12435575 32.85685162 9.06708094 34.43272486 8 36 C7.65552607 38.9825121 7.65552607 38.9825121 9.42578125 40.5 C10.04839844 40.995 10.67101563 41.49 11.3125 42 C16.36297286 46.06578947 16.36297286 46.06578947 18 48 C18 48.99 18 49.98 18 51 C15.525 51.495 15.525 51.495 13 52 C12.60167969 51.51789062 12.20335937 51.03578125 11.79296875 50.5390625 C11.26316406 49.90742187 10.73335937 49.27578125 10.1875 48.625 C9.66542969 47.99851563 9.14335938 47.37203125 8.60546875 46.7265625 C6.91774261 44.7778952 6.91774261 44.7778952 4 43 C4 42.34 4 41.68 4 41 C3.01 41 2.02 41 1 41 C0.67 41.99 0.34 42.98 0 44 C-0.99 44 -1.98 44 -3 44 C-3 44.66 -3 45.32 -3 46 C-6.46222615 47.06723961 -9.64039266 47.10173486 -13.25 47.0625 C-14.32765625 47.05347656 -15.4053125 47.04445312 -16.515625 47.03515625 C-17.33546875 47.02355469 -18.1553125 47.01195312 -19 47 C-19 46.34 -19 45.68 -19 45 C-20.7015625 44.566875 -20.7015625 44.566875 -22.4375 44.125 C-23.613125 43.75375 -24.78875 43.3825 -26 43 C-26.33 42.34 -26.66 41.68 -27 41 C-27.99 40.67 -28.98 40.34 -30 40 C-34 34.62857143 -34 34.62857143 -34 32 C-34.66 32 -35.32 32 -36 32 C-37.91623761 25.45674964 -38.2698686 17.77987654 -35.25 11.5625 C-30.49562446 3.49854149 -30.49562446 3.49854149 -26 2 C-25.67 1.34 -25.34 0.68 -25 0 C-16.82348656 -3.13143068 -8.22743717 -2.84220557 0 0 Z M-18 3 C-18 3.66 -18 4.32 -18 5 C-19.051875 5.20625 -20.10375 5.4125 -21.1875 5.625 C-25.69800939 6.90587488 -27.39459539 9.16852264 -30 13 C-31.99050539 19.00931058 -32.01703378 26.36982757 -29.5 32.1875 C-29.005 33.115625 -28.51 34.04375 -28 35 C-27.34 35 -26.68 35 -26 35 C-26 35.66 -26 36.32 -26 37 C-25.01 37.33 -24.02 37.66 -23 38 C-22.67 38.66 -22.34 39.32 -22 40 C-16.2867161 42.01645314 -9.37407999 41.76149735 -3.6875 39.9375 C0.91758419 36.61755559 4.88265869 32.33292976 7 27 C7.24029959 24.40845081 7.24029959 24.40845081 7.125 21.75 C7.10695312 20.85796875 7.08890625 19.9659375 7.0703125 19.046875 C7.04710937 18.37140625 7.02390625 17.6959375 7 17 C6.34 17 5.68 17 5 17 C4.505 14.03 4.505 14.03 4 11 C3.01 10.67 2.02 10.34 1 10 C1 9.01 1 8.02 1 7 C-0.32 6.67 -1.64 6.34 -3 6 C-3 5.34 -3 4.68 -3 4 C-6.28519475 2.90493508 -8.73663415 2.90039392 -12.1875 2.9375 C-13.27417969 2.94652344 -14.36085938 2.95554687 -15.48046875 2.96484375 C-16.31191406 2.97644531 -17.14335937 2.98804688 -18 3 Z " fill="#1A1A1A" transform="translate(43,5)"/>
</svg>
