<svg width="22" height="23" viewBox="0 0 22 23" fill="none" xmlns="http://www.w3.org/2000/svg">
<g clip-path="url(#clip0_10105_896)">
<path d="M11.2762 0H15.1874C15.1874 0 14.9643 4.88111 20.6081 5.23889V9.00833C20.6081 9.00833 17.5893 9.18722 15.1874 7.39833L15.2268 15.1928C15.2268 16.5883 14.8016 17.9525 14.0049 19.1127C13.2082 20.2729 12.0759 21.1769 10.7513 21.7104C9.42671 22.2439 7.96931 22.3828 6.56356 22.1096C5.15781 21.8364 3.8669 21.1634 2.85419 20.1757C1.84148 19.188 1.1525 17.93 0.874434 16.561C0.596368 15.1919 0.741717 13.7733 1.29209 12.4847C1.84246 11.1961 2.77311 10.0954 3.96627 9.32193C5.15943 8.54844 6.56146 8.13692 7.99495 8.13944H9.00557V12.0111C8.34616 11.8122 7.6391 11.8208 6.98501 12.0357C6.33092 12.2507 5.76313 12.661 5.36243 13.2082C4.96172 13.7555 4.74853 14.4119 4.75318 15.0839C4.75784 15.756 4.9801 16.4095 5.38834 16.9515C5.79659 17.4935 6.37001 17.8963 7.02702 18.1026C7.68402 18.3089 8.39114 18.3083 9.04773 18.1007C9.70433 17.8931 10.2769 17.4893 10.6841 16.9465C11.0913 16.4038 11.3123 15.7499 11.3156 15.0778L11.2762 0Z" fill="#010101"/>
</g>
<defs>
<clipPath id="clip0_10105_896">
<rect width="21" height="23" fill="white" transform="translate(0.75)"/>
</clipPath>
</defs>
</svg>
