<svg width="27" height="21" viewBox="0 0 27 21" fill="none" xmlns="http://www.w3.org/2000/svg">
<path d="M13.5 0.947632C13.5 0.947632 21.9434 0.947577 24.0488 1.51794C25.2105 1.83185 26.1251 2.75679 26.4355 3.93103C26.9998 6.05938 27 10.5004 27 10.5004C27 10.5479 26.9967 14.9516 26.4355 17.0687C26.1251 18.2429 25.2104 19.1677 24.0488 19.4818C21.9434 20.052 13.5 20.0521 13.5 20.0521C13.5 20.0521 5.05671 20.052 2.95117 19.4818C1.78949 19.1678 0.874937 18.243 0.564453 17.0687C0.00347565 14.9517 1.63794e-05 10.5479 0 10.5004C0 10.5004 0.000378211 6.05937 0.564453 3.93103C0.874945 2.75674 1.78945 1.83181 2.95117 1.51794C5.05671 0.947577 13.5 0.947632 13.5 0.947632ZM10.9707 15.0687L17.7207 10.9164L10.9707 6.76208V15.0687Z" fill="#010101"/>
</svg>
